<svg width="24" height="24" viewBox="0 0 24 24" fill="none" xmlns="http://www.w3.org/2000/svg">
<g clip-path="url(#clip0)">
<path d="M12.002 4.602L17.5775 7.68L18.0005 7.905V9.003C18.0005 9.0075 18.0005 9.012 18.0005 9.0165V19.5015H6.00345V9.003V7.878L12.002 4.602ZM12.002 3C11.876 3 11.75 3.0315 11.633 3.0945L3.40245 7.5855C3.39345 7.59 3.38895 7.5945 3.37995 7.599L3.37545 7.6035C3.15495 7.734 3.00195 7.9725 3.00195 8.2515C3.00195 8.6655 3.33945 9.003 3.75345 9.003H4.50495V20.2575C4.50495 20.667 4.83795 21 5.24745 21H18.7565C19.166 21 19.499 20.667 19.499 20.2575V9.0075C19.499 9.0075 19.499 9.0075 19.499 9.003H20.2505C20.6645 9.003 21.002 8.6655 21.002 8.2515C21.002 7.9635 20.84 7.716 20.606 7.59L12.371 3.0945C12.254 3.0315 12.128 3 12.002 3Z" fill="white"/>
</g>
<defs>
<clipPath id="clip0">
<rect width="17.9955" height="18" fill="white" transform="translate(3.00195 3)"/>
</clipPath>
</defs>
</svg>
