<svg width="600" height="450" viewBox="0 0 600 450" fill="none" xmlns="http://www.w3.org/2000/svg">
<rect width="600" height="450" fill="#EAEAEA"/>
<path d="M393.878 332.185C367.332 332.557 344.613 323.046 324.736 306.011C314.222 297.001 312.346 283.57 320.129 273.892C329.065 262.746 341.269 261.65 353.363 270.79C379.946 290.871 408.052 291.911 431.979 272.331C451.745 256.133 458.507 234.547 452.098 209.802C445.837 185.653 429.508 171.219 405.285 165.664C378.794 159.571 348.421 175.956 334.582 202.706C325.665 219.927 319.2 238.132 311.956 256.021C296.946 293.063 271.347 318.94 232.076 328.916C206.551 335.311 179.561 332.014 156.327 319.661C133.093 307.308 115.266 286.777 106.294 262.04C87.8284 210.025 111.161 151.435 161.02 128.79C201.592 110.38 240.194 115.526 274.877 144.246C286.468 153.831 288.345 167.522 280.171 177.683C271.997 187.845 257.526 188.588 245.786 179.207C207.35 148.481 157.101 169.714 147.552 211.679C141.979 236.033 149.41 256.839 168.6 272.48C186.415 287.044 206.849 289.942 228.621 281.768C254.294 272.034 266.368 250.56 276.01 227.004C280.988 214.837 285.428 202.428 290.704 190.39C310.414 145.379 344.576 120.003 394.008 118.721C444.165 117.421 489.585 156.562 498.335 206.31C500.809 220.189 500.523 234.42 497.494 248.189C494.465 261.958 488.752 274.994 480.681 286.554C472.61 298.113 462.34 307.968 450.458 315.556C438.576 323.143 425.315 328.314 411.433 330.774C405.656 331.758 399.73 331.74 393.878 332.185Z" fill="#DCDCDC"/>
</svg>
