<svg width="50" height="50" viewBox="0 0 50 50" fill="none" xmlns="http://www.w3.org/2000/svg">
<rect x="0.00900269" width="49.982" height="50" rx="24.991" fill="url(#paint0_linear_9_329)"/>
<g clip-path="url(#clip0_9_329)">
<path d="M33.019 20.5135H29.5045C29.5045 20.509 29.5045 20.509 29.5045 20.5045C29.5045 18.016 27.4885 16 25 16C22.5115 16 20.4955 18.016 20.4955 20.5045C20.4955 20.509 20.4955 20.509 20.4955 20.5135H16.981C16.4455 20.5135 16.009 20.95 16.009 21.4855V33.0235C16.009 33.5635 16.4455 34 16.981 34H33.019C33.5545 34 33.991 33.5635 33.991 33.028V21.4855C33.991 20.95 33.5545 20.5135 33.019 20.5135ZM21.994 20.5045C21.994 19.7035 22.3045 18.9475 22.876 18.3805C23.443 17.8135 24.199 17.4985 25 17.4985C25.801 17.4985 26.557 17.809 27.124 18.3805C27.691 18.9475 28.006 19.7035 28.006 20.5045C28.006 20.509 28.006 20.509 28.006 20.5135H21.994C21.994 20.509 21.994 20.509 21.994 20.5045ZM32.4925 32.5015H17.5075V22.012H20.752H29.2435H32.488V32.5015H32.4925Z" fill="white"/>
<path d="M24.9998 24.2574C23.3438 24.2574 22.0028 25.5984 22.0028 27.2544C22.0028 28.9104 23.3438 30.2514 24.9998 30.2514C26.6558 30.2514 27.9968 28.9104 27.9968 27.2544C27.9968 25.5984 26.6558 24.2574 24.9998 24.2574ZM24.9998 28.7529C24.1718 28.7529 23.5013 28.0824 23.5013 27.2544C23.5013 26.4264 24.1718 25.7559 24.9998 25.7559C25.8278 25.7559 26.4983 26.4264 26.4983 27.2544C26.4983 28.0824 25.8278 28.7529 24.9998 28.7529Z" fill="white"/>
</g>
<defs>
<linearGradient id="paint0_linear_9_329" x1="0.00900306" y1="25" x2="49.991" y2="25" gradientUnits="userSpaceOnUse">
<stop stop-color="#EC5398"/>
<stop offset="1" stop-color="#BD4BDA"/>
</linearGradient>
<clipPath id="clip0_9_329">
<rect width="17.982" height="18" fill="white" transform="translate(16.009 16)"/>
</clipPath>
</defs>
</svg>
