<svg width="16" height="16" viewBox="0 0 16 16" fill="none" xmlns="http://www.w3.org/2000/svg">
<path d="M7.13855 0.810275C7.62261 0.354972 8.37739 0.354972 8.86145 0.810275V0.810275C9.20293 1.13147 9.69475 1.23601 10.1374 1.08148V1.08148C10.7647 0.862422 11.4543 1.16942 11.7113 1.78224V1.78224C11.8926 2.21456 12.2994 2.51011 12.7666 2.54896V2.54896C13.4288 2.60402 13.9339 3.16493 13.9194 3.82931V3.82931C13.9092 4.29801 14.1606 4.73345 14.5716 4.95897V4.95897C15.1542 5.27864 15.3875 5.99648 15.104 6.59754V6.59754C14.9041 7.02156 14.9566 7.52162 15.2404 7.8948V7.8948C15.6426 8.4238 15.5637 9.17445 15.0603 9.60826V9.60826C14.7052 9.9143 14.5498 10.3925 14.6572 10.8488V10.8488C14.8095 11.4957 14.4321 12.1493 13.7958 12.3409V12.3409C13.3469 12.476 13.0104 12.8497 12.9229 13.3103V13.3103C12.7989 13.9631 12.1883 14.4068 11.5291 14.323V14.323C11.064 14.2638 10.6047 14.4683 10.3375 14.8535V14.8535C9.95863 15.3995 9.22035 15.5564 8.65221 15.2117V15.2117C8.2514 14.9685 7.7486 14.9685 7.34779 15.2117V15.2117C6.77965 15.5564 6.04137 15.3995 5.66255 14.8535V14.8535C5.39531 14.4683 4.93597 14.2638 4.47091 14.323V14.323C3.81168 14.4068 3.20105 13.9631 3.07706 13.3103V13.3103C2.98959 12.8497 2.65315 12.476 2.20424 12.3409V12.3409C1.56791 12.1493 1.19052 11.4957 1.34279 10.8488V10.8488C1.45022 10.3925 1.29484 9.9143 0.939707 9.60826V9.60826C0.4363 9.17445 0.357404 8.4238 0.759615 7.8948V7.8948C1.04336 7.52162 1.09592 7.02156 0.895963 6.59754V6.59754C0.612526 5.99648 0.845766 5.27864 1.42837 4.95897V4.95897C1.83937 4.73345 2.09077 4.29801 2.08057 3.82931V3.82931C2.06611 3.16493 2.57116 2.60402 3.23341 2.54896V2.54896C3.70061 2.51011 4.10739 2.21456 4.2887 1.78224V1.78224C4.54572 1.16942 5.23525 0.862421 5.86265 1.08148V1.08148C6.30525 1.23601 6.79707 1.13147 7.13855 0.810275V0.810275Z" fill="url(#paint0_linear_2_387)"/>
<path d="M9.87757 9.9998C9.34665 10.0067 8.89226 9.82912 8.49472 9.51101C8.28444 9.34276 8.24691 9.09194 8.40258 8.9112C8.58129 8.70306 8.82539 8.68259 9.06726 8.85327C9.59892 9.22828 10.161 9.2477 10.6396 8.88206C11.0349 8.57956 11.1701 8.17645 11.042 7.71436C10.9167 7.26338 10.5902 6.99383 10.1057 6.89011C9.57588 6.77632 8.96843 7.0823 8.69164 7.58185C8.5133 7.90343 8.38401 8.2434 8.23911 8.57748C7.93891 9.26921 7.42694 9.75246 6.64152 9.93875C6.13102 10.0582 5.59123 9.9966 5.12655 9.76591C4.66187 9.53522 4.30532 9.15182 4.12587 8.68987C3.75657 7.71853 4.22321 6.62438 5.22041 6.20149C6.03183 5.85771 6.80388 5.9538 7.49753 6.49012C7.72937 6.66913 7.76689 6.9248 7.60342 7.11456C7.43994 7.30432 7.15052 7.31819 6.91571 7.14301C6.14701 6.56922 5.14201 6.96573 4.95105 7.7494C4.83959 8.2042 4.9882 8.59274 5.37199 8.88484C5.72829 9.15681 6.13698 9.21093 6.57241 9.05829C7.08587 8.87651 7.32737 8.47548 7.52019 8.0356C7.61976 7.80838 7.70856 7.57664 7.81408 7.35184C8.20827 6.51128 8.89152 6.03741 9.88017 6.01347C10.8833 5.98918 11.7917 6.72012 11.9667 7.64915C12.0162 7.90833 12.0105 8.17409 11.9499 8.43121C11.8893 8.68833 11.775 8.93179 11.6136 9.14765C11.4522 9.36352 11.2468 9.54756 11.0092 9.68925C10.7715 9.83094 10.5063 9.92751 10.2287 9.97344C10.1131 9.99182 9.9946 9.99148 9.87757 9.9998Z" fill="white"/>
<defs>
<linearGradient id="paint0_linear_2_387" x1="1.19209e-07" y1="8" x2="16" y2="8" gradientUnits="userSpaceOnUse">
<stop stop-color="#EC5398"/>
<stop offset="1" stop-color="#BD4BDA"/>
</linearGradient>
</defs>
</svg>
