<svg width="24" height="24" viewBox="0 0 24 24" fill="none" xmlns="http://www.w3.org/2000/svg">
<path d="M20.5189 6.27975L12.1183 3.05006C12.0298 3.01613 11.9389 3 11.8494 3C11.5481 3 11.2639 3.183 11.1493 3.48113L10.1807 6H9.47606H3.75C3.33581 6 3 6.33581 3 6.75V20.25C3 20.6642 3.33581 21 3.75 21H12.75C13.1642 21 13.5 20.6642 13.5 20.25V19.9734V19.6517L15.1363 20.2808C15.2248 20.3147 15.3158 20.3308 15.4054 20.3308C15.7067 20.3308 15.9909 20.1478 16.1055 19.8497L20.9498 7.24875C21.0984 6.86231 20.9055 6.42844 20.5189 6.27975ZM12 19.0749V19.5H4.5V7.5H9.47606H9.60413L6.30488 16.0819C6.15619 16.4685 6.34913 16.9024 6.73575 17.0511L12 19.0749ZM14.9745 18.6114L7.974 15.9203L12.2801 4.71938L19.2806 7.41075L14.9745 18.6114Z" fill="#02CBA9"/>
</svg>
