<svg width="24" height="24" viewBox="0 0 24 24" fill="none" xmlns="http://www.w3.org/2000/svg">
<g clip-path="url(#clip0)">
<path d="M11.4375 3C6.7755 3 3 6.7755 3 11.4375C3 16.0995 6.7755 19.875 11.4375 19.875C13.4985 19.875 15.384 19.137 16.851 17.9085L19.722 20.7795C19.8705 20.928 20.0595 21 20.253 21C20.4465 21 20.6355 20.928 20.784 20.7795C21.0765 20.487 21.0765 20.01 20.784 19.7175L17.913 16.8465C19.137 15.3795 19.8795 13.494 19.8795 11.433C19.875 6.7755 16.0995 3 11.4375 3ZM11.4375 18.3765C10.5015 18.3765 9.5925 18.192 8.7375 17.832C7.9095 17.481 7.1715 16.9815 6.5325 16.3425C5.8935 15.7035 5.394 14.961 5.043 14.1375C4.683 13.2825 4.4985 12.3735 4.4985 11.4375C4.4985 10.5015 4.683 9.5925 5.043 8.7375C5.394 7.9095 5.8935 7.1715 6.5325 6.5325C7.1715 5.8935 7.914 5.394 8.7375 5.043C9.5925 4.683 10.5015 4.4985 11.4375 4.4985C12.3735 4.4985 13.2825 4.683 14.1375 5.043C14.9655 5.394 15.7035 5.8935 16.3425 6.5325C16.9815 7.1715 17.481 7.914 17.832 8.7375C18.192 9.5925 18.3765 10.5015 18.3765 11.4375C18.3765 12.3735 18.192 13.2825 17.832 14.1375C17.481 14.9655 16.9815 15.7035 16.3425 16.3425C15.7035 16.9815 14.961 17.481 14.1375 17.832C13.2825 18.192 12.3735 18.3765 11.4375 18.3765Z" fill="#02CBA9"/>
</g>
<defs>
<clipPath id="clip0">
<rect width="18" height="18" fill="white" transform="translate(3 3)"/>
</clipPath>
</defs>
</svg>
