<svg width="106" height="60" viewBox="0 0 106 60" fill="none" xmlns="http://www.w3.org/2000/svg">
<g filter="url(#filter0_d_889_990)">
<path d="M76.4696 56.3307C69.8331 56.4232 64.1533 54.055 59.1841 49.8135C56.5555 47.5701 56.0864 44.2259 58.0323 41.816C60.2661 39.0408 63.3173 38.7678 66.3407 41.0436C72.9865 46.0437 80.0131 46.3027 85.9948 41.4275C90.9362 37.3941 92.6266 32.0193 91.0244 25.8582C89.4593 19.8451 85.3771 16.2511 79.3211 14.8681C72.6986 13.351 65.1054 17.4306 61.6455 24.0913C59.4163 28.3791 57.8001 32.912 55.9889 37.3663C52.2364 46.5895 45.8367 53.0328 36.019 55.5166C29.6378 57.1091 22.8903 56.288 17.0818 53.2122C11.2733 50.1363 6.81647 45.0243 4.57339 38.865C-0.0429074 25.9137 5.79017 11.325 18.2551 5.68658C28.3979 1.10275 38.0485 2.38399 46.7191 9.53495C49.6171 11.9217 50.0861 15.3307 48.0427 17.8608C45.9993 20.3909 42.3815 20.5759 39.4464 18.2401C29.8376 10.5896 17.2752 15.8765 14.8881 26.3254C13.4948 32.3894 15.3525 37.5699 20.1499 41.4645C24.6036 45.0909 29.7122 45.8124 35.1552 43.7772C41.5734 41.3535 44.5921 36.0065 47.0024 30.1414C48.247 27.1117 49.357 24.0219 50.676 21.0246C55.6034 9.8171 64.144 3.49873 76.5021 3.17958C89.0413 2.8558 100.396 12.6016 102.584 24.9886C103.202 28.4444 103.131 31.9878 102.374 35.4161C101.616 38.8445 100.188 42.0905 98.1703 44.9687C96.1526 47.8469 93.5851 50.3007 90.6146 52.19C87.6441 54.0793 84.3288 55.3669 80.8583 55.9792C79.414 56.2243 77.9325 56.2197 76.4696 56.3307Z" fill="url(#paint0_linear_889_990)"/>
</g>
<defs>
<filter id="filter0_d_889_990" x="0" y="0" width="106" height="59.3333" filterUnits="userSpaceOnUse" color-interpolation-filters="sRGB">
<feFlood flood-opacity="0" result="BackgroundImageFix"/>
<feColorMatrix in="SourceAlpha" type="matrix" values="0 0 0 0 0 0 0 0 0 0 0 0 0 0 0 0 0 0 127 0" result="hardAlpha"/>
<feOffset/>
<feGaussianBlur stdDeviation="1.5"/>
<feComposite in2="hardAlpha" operator="out"/>
<feColorMatrix type="matrix" values="0 0 0 0 0.92549 0 0 0 0 0.32549 0 0 0 0 0.596078 0 0 0 0.4 0"/>
<feBlend mode="normal" in2="BackgroundImageFix" result="effect1_dropShadow_889_990"/>
<feBlend mode="normal" in="SourceGraphic" in2="effect1_dropShadow_889_990" result="shape"/>
</filter>
<linearGradient id="paint0_linear_889_990" x1="3" y1="29.6667" x2="103" y2="29.6667" gradientUnits="userSpaceOnUse">
<stop stop-color="#EC5398"/>
<stop offset="1" stop-color="#BD4BDA"/>
</linearGradient>
</defs>
</svg>
