<svg width="18" height="18" viewBox="0 0 18 18" fill="none" xmlns="http://www.w3.org/2000/svg">
<path d="M17.5189 3.27975L9.11831 0.0500625C9.02981 0.016125 8.93888 0 8.84944 0C8.54813 0 8.26388 0.183 8.14931 0.481125L7.18069 3H6.47606H0.75C0.335813 3 0 3.33581 0 3.75V17.25C0 17.6642 0.335813 18 0.75 18H9.75C10.1642 18 10.5 17.6642 10.5 17.25V16.9734V16.6517L12.1363 17.2808C12.2248 17.3147 12.3158 17.3308 12.4054 17.3308C12.7067 17.3308 12.9909 17.1478 13.1055 16.8497L17.9498 4.24875C18.0984 3.86231 17.9055 3.42844 17.5189 3.27975ZM9 16.0749V16.5H1.5V4.5H6.47606H6.60413L3.30488 13.0819C3.15619 13.4685 3.34913 13.9024 3.73575 14.0511L9 16.0749ZM11.9745 15.6114L4.974 12.9203L9.28013 1.71938L16.2806 4.41075L11.9745 15.6114Z" fill="#02CBA9"/>
</svg>
