<svg width="18" height="18" viewBox="0 0 18 18" fill="none" xmlns="http://www.w3.org/2000/svg">
<path d="M17.7954 6.57906L15.2341 3.90992C14.9489 3.61274 14.4667 3.59712 14.1751 3.88806C13.8924 4.17 13.8863 4.62753 14.1638 4.91682L15.4382 6.24478H11.0205C10.6147 6.24478 10.2858 6.57374 10.2858 6.97947C10.2858 7.38521 10.6147 7.71417 11.0205 7.71417H15.5493L14.1857 9.02027C13.8927 9.30092 13.8826 9.76598 14.1633 10.0591C14.3077 10.2097 14.5005 10.2856 14.6939 10.2856C14.8767 10.2856 15.0596 10.2178 15.202 10.0815L17.7734 7.61829C17.9143 7.48347 17.9956 7.29815 17.9997 7.10327C18.0039 6.90839 17.9304 6.71976 17.7954 6.57906Z" fill="#02CBA9"/>
<path d="M11.7527 9.5422C11.3538 9.5422 11.0296 9.86124 11.0208 10.258H11.0204V10.2743V11.0314V12.4898H6.59957V4.1051C6.59957 3.83859 6.4552 3.59302 6.22249 3.46335L2.64471 1.46939H11.0204V2.91857V3.67567V3.68247H11.0206C11.0243 4.0838 11.3505 4.40798 11.7527 4.40798C12.155 4.40798 12.4812 4.0838 12.4848 3.68247H12.4898V0.734326C12.4898 0.328775 12.161 0 11.7555 0H0.734326C0.328775 0 0 0.328775 0 0.734326V1.24586V1.24567C0 1.24586 0 1.24586 0 1.24604V13.5274C0 13.7941 0.144367 14.0396 0.377449 14.1693L5.50763 17.0249C5.62335 17.0892 5.74531 17.1187 5.86414 17.1187C6.24839 17.1187 6.59975 16.8111 6.59975 16.3829V13.9592H11.7557C12.1612 13.9592 12.49 13.6304 12.49 13.2249V10.258H12.4848C12.4758 9.86124 12.1517 9.5422 11.7527 9.5422ZM5.13018 15.133L1.46939 13.0954V2.49649L5.13018 4.53673V15.133Z" fill="#02CBA9"/>
</svg>
