<svg width="18" height="18" viewBox="0 0 18 18" fill="none" xmlns="http://www.w3.org/2000/svg">
<path d="M8.99984 10.4715C11.8933 10.4715 14.2378 8.127 14.2378 5.2335C14.2378 2.34 11.8933 0 8.99984 0C6.10634 0 3.76184 2.3445 3.76184 5.238C3.76184 8.1315 6.10634 10.4715 8.99984 10.4715ZM6.35834 2.592C7.06484 1.89 8.00084 1.4985 8.99984 1.4985C9.99884 1.4985 10.9348 1.8855 11.6413 2.592C12.3478 3.2985 12.7348 4.2345 12.7348 5.2335C12.7348 6.2325 12.3478 7.1685 11.6413 7.875C10.9348 8.5815 9.99884 8.9685 8.99984 8.9685C8.00084 8.9685 7.06484 8.5815 6.35834 7.875C5.65184 7.1685 5.26484 6.2325 5.26484 5.2335C5.26484 4.2345 5.65184 3.2985 6.35834 2.592Z" fill="#02CBA9"/>
<path d="M12.006 11.25H5.994C2.6865 11.25 0 13.9365 0 17.244C0 17.6625 0.3375 18 0.756 18H17.2485C17.667 18 18.0045 17.6625 18.0045 17.244C18 13.9365 15.3135 11.25 12.006 11.25ZM1.5615 16.5015C1.7145 15.5835 2.1465 14.7375 2.817 14.067C3.6675 13.2165 4.797 12.7485 5.994 12.7485H12.0015C13.203 12.7485 14.3325 13.2165 15.1785 14.067C15.849 14.7375 16.281 15.5835 16.434 16.5015H1.5615Z" fill="#02CBA9"/>
</svg>
