<svg width="18" height="18" viewBox="0 0 18 18" fill="none" xmlns="http://www.w3.org/2000/svg">
<path d="M8.99976 0C8.80626 0 8.61726 0.072 8.46876 0.2205L0.22026 8.469C-0.07224 8.7615 -0.07224 9.234 0.22026 9.5265L8.47326 17.7795C8.61726 17.928 8.81076 18 8.99976 18C9.19326 18 9.38226 17.928 9.53076 17.7795C9.82326 17.487 9.82326 17.0145 9.53076 16.722L2.53776 9.7245H17.2573C17.6668 9.7245 17.9953 9.396 17.9953 8.9865C17.9953 8.577 17.6668 8.2485 17.2573 8.2485H2.56026L9.53076 1.278C9.82326 0.9855 9.82326 0.513 9.53076 0.2205C9.38226 0.072 9.18876 0 8.99976 0Z" fill="white"/>
</svg>
