<svg width="35" height="35" viewBox="0 0 35 35" fill="none" xmlns="http://www.w3.org/2000/svg">
<circle cx="17.5" cy="17.5" r="17.5" fill="#FC318B"/>
<path d="M17.5385 12C17.2837 12 17.076 12.2077 17.076 12.4625V17.0788H12.4625C12.2077 17.076 12 17.2837 12 17.5385C12 17.7932 12.2077 18.0009 12.4625 18.0009H17.0788V22.6172C17.0788 22.872 17.2865 23.0797 17.5412 23.0797C17.796 23.0797 18.0037 22.872 18.0037 22.6172V18.0009H22.62C22.8748 18.0009 23.0825 17.7932 23.0825 17.5385C23.0825 17.2837 22.8748 17.076 22.62 17.076H18.0009V12.4625C18.0009 12.2077 17.7932 12 17.5385 12Z" fill="white"/>
</svg>
