<svg width="18" height="6" viewBox="0 0 18 6" fill="none" xmlns="http://www.w3.org/2000/svg">
<g clip-path="url(#clip0_26_227)">
<path d="M17.0009 1.737C17.2124 1.6245 17.4239 1.512 17.6309 1.3905C17.9864 1.1835 18.1079 0.728997 17.9054 0.373497C17.6984 0.017997 17.2439 -0.103503 16.8884 0.0989971C15.7139 0.778497 14.4584 1.3005 13.1534 1.656C11.8034 2.0205 10.4084 2.205 8.99989 2.205C7.59139 2.205 6.19639 2.0205 4.85089 1.656C3.54589 1.3005 2.29039 0.778497 1.11589 0.0989971C0.76039 -0.108003 0.30589 0.013497 0.0988903 0.373497C-0.10811 0.728997 0.0133902 1.1835 0.37339 1.3905C0.58039 1.512 0.79189 1.6245 1.00339 1.737L0.27439 2.4615C-0.0181097 2.754 -0.0181097 3.2265 0.27439 3.5145C0.56689 3.807 1.03939 3.807 1.32739 3.5145L2.43439 2.4075C3.09139 2.6775 3.77089 2.907 4.45489 3.096C4.85539 3.204 5.25589 3.2985 5.66089 3.375L5.31889 4.2345C5.16589 4.617 5.35489 5.049 5.73739 5.202C6.11989 5.355 6.55189 5.166 6.70489 4.7835L7.18189 3.6C7.78489 3.663 8.39239 3.6945 8.99989 3.6945C9.60739 3.6945 10.2149 3.663 10.8179 3.6L11.2859 4.7835C11.4389 5.166 11.8709 5.355 12.2534 5.202C12.6359 5.049 12.8249 4.617 12.6719 4.2345L12.3344 3.375C12.7394 3.294 13.1444 3.204 13.5404 3.096C14.2289 2.907 14.9039 2.6775 15.5609 2.4075L16.6679 3.5145C16.9604 3.807 17.4329 3.807 17.7209 3.5145C18.0134 3.222 18.0134 2.7495 17.7209 2.4615L17.0009 1.737Z" fill="white"/>
</g>
<defs>
<clipPath id="clip0_26_227">
<rect width="18" height="5.256" fill="white"/>
</clipPath>
</defs>
</svg>
