<svg width="18" height="18" viewBox="0 0 18 18" fill="none" xmlns="http://www.w3.org/2000/svg">
<path d="M17.262 0H0.738C0.333 0 0 0.333 0 0.738V13.509C0 13.9185 0.333 14.247 0.738 14.247H2.997V14.4315V17.1675C2.997 17.6535 3.3525 18 3.7395 18C3.87 18 4.0005 17.964 4.122 17.8785L9.369 14.292C9.387 14.2785 9.405 14.265 9.423 14.2515H17.2575C17.667 14.2515 17.9955 13.9185 17.9955 13.5135V0.738C18 0.333 17.667 0 17.262 0ZM16.5015 12.7485H9.4275H8.8965L8.505 13.068L4.5 15.804V14.436V14.2515V12.753H3.0015H1.4985V1.503H16.497V12.7485H16.5015Z" fill="white"/>
<path d="M5.2515 6.74999H12.753C13.167 6.74999 13.5045 6.41249 13.5045 5.99849C13.5045 5.58449 13.167 5.24699 12.753 5.24699H5.2515C4.8375 5.24699 4.5 5.58449 4.5 5.99849C4.5 6.41249 4.8375 6.74999 5.2515 6.74999Z" fill="white"/>
<path d="M11.245 8.2485H6.74955C6.33555 8.2485 5.99805 8.586 5.99805 9C5.99805 9.414 6.33555 9.7515 6.74955 9.7515H11.245C11.659 9.7515 11.9965 9.414 11.9965 9C11.9965 8.586 11.659 8.2485 11.245 8.2485Z" fill="white"/>
</svg>
