<svg width="18" height="18" viewBox="0 0 18 18" fill="none" xmlns="http://www.w3.org/2000/svg">
<path d="M17.7958 6.579L15.2345 3.90986C14.9492 3.61268 14.4671 3.59706 14.1754 3.888C13.8927 4.16994 13.8867 4.62747 14.1642 4.91676L15.4385 6.24472H11.0208C10.6151 6.24472 10.2861 6.57368 10.2861 6.97941C10.2861 7.38515 10.6151 7.7141 11.0208 7.7141H15.5497L14.1861 9.02021C13.8931 9.30086 13.883 9.76592 14.1637 10.0591C14.308 10.2097 14.5009 10.2855 14.6943 10.2855C14.8771 10.2855 15.06 10.2178 15.2023 10.0815L17.7738 7.61823C17.9146 7.48341 17.996 7.29808 18.0001 7.10321C18.0043 6.90833 17.9308 6.7197 17.7958 6.579Z" fill="white"/>
<path d="M11.7527 9.5422C11.3538 9.5422 11.0296 9.86124 11.0208 10.258H11.0204V10.2743V11.0314V12.4898H6.59957V4.1051C6.59957 3.83859 6.4552 3.59302 6.22249 3.46335L2.64471 1.46939H11.0204V2.91857V3.67567V3.68247H11.0206C11.0243 4.0838 11.3505 4.40798 11.7527 4.40798C12.155 4.40798 12.4812 4.0838 12.4848 3.68247H12.4898V0.734326C12.4898 0.328775 12.161 0 11.7555 0H0.734326C0.328775 0 0 0.328775 0 0.734326V1.24586V1.24567C0 1.24586 0 1.24586 0 1.24604V13.5274C0 13.7941 0.144367 14.0396 0.377449 14.1693L5.50763 17.0249C5.62335 17.0892 5.74531 17.1187 5.86414 17.1187C6.24839 17.1187 6.59976 16.8111 6.59976 16.3829V13.9592H11.7557C12.1612 13.9592 12.49 13.6304 12.49 13.2249V10.258H12.4848C12.4758 9.86124 12.1517 9.5422 11.7527 9.5422ZM5.13018 15.133L1.46939 13.0954V2.49649L5.13018 4.53673V15.133Z" fill="white"/>
</svg>
