<svg width="24" height="24" viewBox="0 0 24 24" fill="none" xmlns="http://www.w3.org/2000/svg">
<g clip-path="url(#clip0_991_990)">
<path d="M20.9763 18.948V8.976C20.9763 4.02 16.9563 0 12.0003 0C7.04432 0 3.02432 4.02 3.02432 8.976V18.948C2.47232 18.948 2.02832 19.398 2.02832 19.95C2.02832 20.502 2.47832 20.946 3.02432 20.946H7.38032C8.14832 22.74 9.92432 24 12.0003 24C14.0763 24 15.8523 22.74 16.6203 20.946H20.9763C21.5283 20.946 21.9723 20.496 21.9723 19.95C21.9723 19.398 21.5283 18.948 20.9763 18.948ZM14.1423 21.12C13.5723 21.69 12.8103 22.008 12.0063 22.008C11.2023 22.008 10.4403 21.696 9.87032 21.12C9.81632 21.066 9.76232 21.006 9.70832 20.946H14.3043C14.2503 21.006 14.1963 21.066 14.1423 21.12ZM18.9843 18.948H5.02232V8.976C5.02232 8.034 5.20832 7.116 5.56832 6.258C5.92232 5.424 6.42632 4.68 7.06232 4.038C7.69832 3.396 8.44832 2.892 9.28232 2.544C10.1403 2.178 11.0583 1.998 12.0003 1.998C12.9423 1.998 13.8603 2.184 14.7183 2.544C15.5523 2.898 16.2963 3.402 16.9383 4.038C17.5803 4.68 18.0843 5.424 18.4323 6.258C18.7983 7.116 18.9783 8.034 18.9783 8.976V18.948H18.9843Z" fill="#352F31"/>
</g>
<defs>
<clipPath id="clip0_991_990">
<rect width="19.944" height="24" fill="white" transform="translate(2.02832)"/>
</clipPath>
</defs>
</svg>
