<svg width="15" height="18" viewBox="0 0 15 18" fill="none" xmlns="http://www.w3.org/2000/svg">
<path d="M14.211 14.211V6.732C14.211 3.015 11.196 0 7.479 0C3.762 0 0.747 3.015 0.747 6.732V14.211C0.333 14.211 0 14.5485 0 14.9625C0 15.3765 0.3375 15.7095 0.747 15.7095H4.014C4.59 17.055 5.922 18 7.479 18C9.036 18 10.368 17.055 10.944 15.7095H14.211C14.625 15.7095 14.958 15.372 14.958 14.9625C14.958 14.5485 14.625 14.211 14.211 14.211ZM9.0855 15.84C8.658 16.2675 8.0865 16.506 7.4835 16.506C6.8805 16.506 6.309 16.272 5.8815 15.84C5.841 15.7995 5.8005 15.7545 5.76 15.7095H9.207C9.1665 15.7545 9.126 15.7995 9.0855 15.84ZM12.717 14.211H2.2455V6.732C2.2455 6.0255 2.385 5.337 2.655 4.6935C2.9205 4.068 3.2985 3.51 3.7755 3.0285C4.2525 2.547 4.815 2.169 5.4405 1.908C6.084 1.6335 6.7725 1.4985 7.479 1.4985C8.1855 1.4985 8.874 1.638 9.5175 1.908C10.143 2.1735 10.701 2.5515 11.1825 3.0285C11.664 3.51 12.042 4.068 12.303 4.6935C12.5775 5.337 12.7125 6.0255 12.7125 6.732V14.211H12.717Z" fill="white"/>
</svg>
