<svg width="18" height="11" viewBox="0 0 18 11" fill="none" xmlns="http://www.w3.org/2000/svg">
<g clip-path="url(#clip0_26_228)">
<path d="M17.802 4.7475C16.5825 3.4335 13.014 0 8.9955 0C4.986 0 1.4265 3.4155 0.2025 4.734C-0.0675 5.022 -0.0675 5.472 0.2025 5.76C1.431 7.0785 4.986 10.494 8.9955 10.494C13.014 10.494 16.587 7.0605 17.802 5.7465C18.0675 5.4675 18.0675 5.031 17.802 4.7475ZM13.6215 7.3665C12.861 7.8705 12.1005 8.262 11.3715 8.5365C10.548 8.8425 9.747 9 8.9955 9C8.244 9 7.4475 8.847 6.624 8.541C5.895 8.271 5.139 7.8795 4.3785 7.3755C3.2985 6.66 2.3985 5.8545 1.791 5.2515C2.3985 4.6485 3.2985 3.843 4.3785 3.1275C5.139 2.628 5.895 2.232 6.624 1.962C7.4475 1.656 8.244 1.503 8.9955 1.503C9.747 1.503 10.548 1.6605 11.3715 1.9665C12.1005 2.241 12.861 2.6325 13.6215 3.1365C14.697 3.8475 15.5925 4.653 16.2 5.2515C15.597 5.85 14.697 6.6555 13.6215 7.3665Z" fill="white"/>
<path d="M8.99516 7.54199C10.2502 7.54199 11.2677 6.52456 11.2677 5.26949C11.2677 4.01443 10.2502 2.99699 8.99516 2.99699C7.74009 2.99699 6.72266 4.01443 6.72266 5.26949C6.72266 6.52456 7.74009 7.54199 8.99516 7.54199Z" fill="white"/>
</g>
<defs>
<clipPath id="clip0_26_228">
<rect width="18" height="10.4985" fill="white"/>
</clipPath>
</defs>
</svg>
