<svg width="24" height="24" viewBox="0 0 24 24" fill="none" xmlns="http://www.w3.org/2000/svg">
<g clip-path="url(#clip0)">
<path d="M12 3C11.586 3 11.2485 3.3375 11.2485 3.7515V11.253H3.7515C3.3375 11.2485 3 11.586 3 12C3 12.414 3.3375 12.7515 3.7515 12.7515H11.253V20.253C11.253 20.667 11.5905 21.0045 12.0045 21.0045C12.4185 21.0045 12.756 20.667 12.756 20.253V12.7515H20.2575C20.6715 12.7515 21.009 12.414 21.009 12C21.009 11.586 20.6715 11.2485 20.2575 11.2485H12.7515V3.7515C12.7515 3.3375 12.414 3 12 3Z" fill="white"/>
</g>
<defs>
<clipPath id="clip0">
<rect width="18" height="18" fill="white" transform="translate(3 3)"/>
</clipPath>
</defs>
</svg>
