<svg width="10" height="10" viewBox="0 0 10 10" fill="none" xmlns="http://www.w3.org/2000/svg">
<path d="M8.68066 4.30252H5.69716V1.31902C5.69716 0.905021 5.36416 0.572021 4.95016 0.572021C4.53616 0.572021 4.20316 0.905021 4.20316 1.31902V4.30252H1.21966C0.805657 4.30252 0.472656 4.63552 0.472656 5.04952C0.472656 5.46352 0.805657 5.79652 1.21966 5.79652H4.20316V8.78002C4.20316 9.19402 4.53616 9.52702 4.95016 9.52702C5.36416 9.52702 5.69716 9.19402 5.69716 8.78002V5.79652H8.68066C9.09466 5.79652 9.42766 5.46352 9.42766 5.04952C9.42766 4.63552 9.09466 4.30252 8.68066 4.30252Z" fill="white"/>
</svg>
