<svg width="18" height="18" viewBox="0 0 18 18" fill="none" xmlns="http://www.w3.org/2000/svg">
<g clip-path="url(#clip0)">
<path d="M9.00099 2.69869L10.1714 6.30075L10.5081 7.33725H11.5979H15.3854L12.3213 9.56344L11.4396 10.2039L11.7764 11.2404L12.9468 14.8425L9.88262 12.6163L9.00099 11.9756L8.11936 12.6161L5.05523 14.8425L6.2256 11.2404L6.56236 10.2039L5.68073 9.56344L2.61659 7.33725H6.40411H7.49386L7.83061 6.30075L9.00099 2.69869ZM9.00099 0C8.61474 0 8.22849 0.222 8.0843 0.666L6.40411 5.83725H0.966775C0.0330217 5.83725 -0.355292 7.03219 0.400148 7.581L4.7991 10.7769L3.11891 15.9482C2.89916 16.6247 3.43653 17.2144 4.03897 17.2144C4.22741 17.2144 4.42222 17.1566 4.60222 17.0259L9.00099 13.8298L13.3999 17.0258C13.5799 17.1564 13.7748 17.2142 13.9632 17.2142C14.5656 17.2142 15.103 16.6245 14.8833 15.948L13.2031 10.7768L17.602 7.58081C18.3575 7.032 17.9691 5.83706 17.0354 5.83706H11.5979L9.91768 0.665812C9.77349 0.222 9.38724 0 9.00099 0Z" fill="white"/>
</g>
<defs>
<clipPath id="clip0">
<rect width="18" height="17.2142" fill="white"/>
</clipPath>
</defs>
</svg>
