<svg width="18" height="14" viewBox="0 0 18 14" fill="none" xmlns="http://www.w3.org/2000/svg">
<path d="M0.666 1.4985H13.581C13.95 1.4985 14.247 1.2015 14.247 0.8325V0.666C14.2515 0.297 13.95 0 13.581 0H0.666C0.297 0 0 0.297 0 0.666V0.8325C0 1.2015 0.297 1.4985 0.666 1.4985Z" fill="white"/>
<path d="M17.2485 6.04797H0.7515C0.3375 6.04797 0 6.38097 0 6.79497C0 7.20897 0.3375 7.54647 0.7515 7.54647H17.253C17.667 7.54647 18.0045 7.20897 18.0045 6.79497C18 6.38097 17.6625 6.04797 17.2485 6.04797Z" fill="white"/>
<path d="M17.2485 12.0959H0.7515C0.3375 12.0959 0 12.4289 0 12.8429C0 13.2569 0.3375 13.5944 0.7515 13.5944H17.253C17.667 13.5944 18.0045 13.2569 18.0045 12.8429C18 12.4289 17.6625 12.0959 17.2485 12.0959Z" fill="white"/>
</svg>
