<svg width="18" height="18" viewBox="0 0 18 18" fill="none" xmlns="http://www.w3.org/2000/svg">
<path d="M9 0C4.02938 0 0 4.02938 0 9C0 13.9706 4.02938 18 9 18C13.9706 18 18 13.9706 18 9C18 4.02938 13.9706 0 9 0ZM14.3033 14.3033C13.614 14.9925 12.8117 15.5334 11.9188 15.9113C10.9952 16.3018 10.0131 16.5 9 16.5C7.98694 16.5 7.00481 16.3018 6.08119 15.9113C5.18831 15.5336 4.386 14.9927 3.69675 14.3033C3.0075 13.614 2.46656 12.8117 2.08875 11.9188C1.69819 10.9952 1.5 10.0131 1.5 9C1.5 7.98675 1.69819 7.00481 2.08875 6.08119C2.46638 5.18831 3.00731 4.386 3.69675 3.69675C4.386 3.0075 5.18831 2.46656 6.08119 2.08875C7.00481 1.69819 7.98694 1.5 9 1.5C10.0131 1.5 10.9952 1.69819 11.9188 2.08875C12.8117 2.46638 13.614 3.00731 14.3033 3.69675C14.9925 4.386 15.5334 5.18831 15.9113 6.08119C16.3018 7.00481 16.5 7.98675 16.5 9C16.5 10.0131 16.3018 10.9952 15.9113 11.9188C15.5336 12.8119 14.9925 13.614 14.3033 14.3033Z" fill="white"/>
<path d="M9 3.45001C7.13906 3.45001 5.625 4.96407 5.625 6.82501C5.625 7.19776 5.92725 7.50001 6.3 7.50001C6.67275 7.50001 6.975 7.19776 6.975 6.82501C6.975 5.70845 7.88344 4.80001 9 4.80001C10.1166 4.80001 11.025 5.70845 11.025 6.82501C11.025 7.94157 10.1166 8.85001 9 8.85001C8.62725 8.85001 8.325 9.15226 8.325 9.52501V10.875C8.325 11.2478 8.62725 11.55 9 11.55C9.37275 11.55 9.675 11.2478 9.675 10.875V10.1321C11.2136 9.81845 12.375 8.45476 12.375 6.82501C12.375 4.96407 10.8609 3.45001 9 3.45001Z" fill="white"/>
<path d="M9 12.375C8.58581 12.375 8.25 12.7108 8.25 13.125C8.25 13.5392 8.58581 13.875 9 13.875C9.41419 13.875 9.75 13.5392 9.75 13.125C9.75 12.7108 9.41419 12.375 9 12.375Z" fill="white"/>
</svg>
