<svg width="18" height="18" viewBox="0 0 18 18" fill="none" xmlns="http://www.w3.org/2000/svg">
<path d="M9 1.602L14.5755 4.68L14.9985 4.905V6.003C14.9985 6.0075 14.9985 6.012 14.9985 6.0165V16.5015H3.0015V6.003V4.878L9 1.602ZM9 0C8.874 0 8.748 0.0315 8.631 0.0945L0.4005 4.5855C0.3915 4.59 0.387 4.5945 0.378 4.599L0.3735 4.6035C0.153 4.734 0 4.9725 0 5.2515C0 5.6655 0.3375 6.003 0.7515 6.003H1.503V17.2575C1.503 17.667 1.836 18 2.2455 18H15.7545C16.164 18 16.497 17.667 16.497 17.2575V6.0075C16.497 6.0075 16.497 6.0075 16.497 6.003H17.2485C17.6625 6.003 18 5.6655 18 5.2515C18 4.9635 17.838 4.716 17.604 4.59L9.369 0.0945C9.252 0.0315 9.126 0 9 0Z" fill="white"/>
</svg>
