<svg width="16" height="18" viewBox="0 0 16 18" fill="none" xmlns="http://www.w3.org/2000/svg">
<path d="M7.07884 2.025C7.37134 2.6325 7.53334 3.249 7.54684 3.8385V3.843V3.8475C7.55134 4.0365 7.47484 4.5765 7.39834 4.9635C7.35334 5.157 7.33084 5.3505 7.33084 5.5485C7.33084 5.886 7.39834 6.2145 7.52884 6.5205C7.65484 6.8175 7.83484 7.083 8.06434 7.3125C8.29384 7.542 8.55934 7.722 8.85634 7.848C9.16684 7.9785 9.49084 8.046 9.82834 8.046C10.7868 8.046 11.6283 7.5015 12.0468 6.696C12.5958 7.2855 13.0143 8.001 13.2528 8.7705V8.775V8.7795C13.5993 9.8955 13.5813 11.151 13.1988 12.312C12.8973 13.23 12.4203 14.04 11.8218 14.652C11.2773 15.2145 10.6023 15.6825 9.86434 16.002C9.13084 16.3215 8.33434 16.4925 7.56034 16.5015H7.49284C6.90334 16.497 6.31384 16.398 5.72884 16.2045C5.15284 16.011 4.59934 15.7365 4.09084 15.381C3.58234 15.0255 3.13234 14.607 2.75434 14.1345C2.37184 13.653 2.07484 13.131 1.86784 12.582C1.65634 12.015 1.53484 11.421 1.50784 10.8135C1.48084 10.2015 1.55284 9.6075 1.72384 9.045C1.98484 8.163 2.48884 7.254 3.21334 6.345V6.3405V6.336C3.59584 5.85 4.02784 5.3955 4.51384 4.8915L4.51834 4.887L4.52284 4.8825C5.08984 4.2795 5.63884 3.654 6.16984 3.051C6.47134 2.7045 6.77284 2.3625 7.07884 2.025ZM7.25884 0H7.16884C6.98434 0.0135 6.80884 0.0945 6.68284 0.234C5.57134 1.413 4.54534 2.664 3.43834 3.843C2.95234 4.347 2.47084 4.851 2.03884 5.4C1.27384 6.3585 0.634837 7.4295 0.283837 8.6085C-0.152663 10.071 -0.0761631 11.673 0.459337 13.0995C1.52134 15.9525 4.44184 17.9775 7.47934 18H7.56034C9.55384 17.982 11.5113 17.1225 12.8928 15.696C13.6893 14.877 14.2653 13.86 14.6208 12.7755C15.0933 11.3445 15.1338 9.765 14.6838 8.325C14.3688 7.299 13.8063 6.354 13.0638 5.5845C12.7173 5.211 12.3528 4.8375 11.8983 4.5945C11.8038 4.545 11.6913 4.518 11.5833 4.518C11.3178 4.518 11.0478 4.662 10.9488 4.914C10.8588 5.1525 10.8318 5.409 10.8138 5.661C10.7553 6.156 10.3368 6.5385 9.82834 6.5385C9.27934 6.5385 8.83384 6.093 8.83384 5.544C8.83384 5.454 8.84734 5.3685 8.86534 5.2875C8.86534 5.2875 9.06784 4.2975 9.04984 3.7935C9.02284 2.6235 8.59084 1.494 7.95184 0.5265C7.85734 0.3915 7.77634 0.2385 7.64134 0.1395C7.52884 0.0585 7.39384 0.0135 7.25884 0Z" fill="white"/>
</svg>
