<svg width="239" height="159" viewBox="0 0 239 159" fill="none" xmlns="http://www.w3.org/2000/svg">
<g clip-path="url(#clip0_493_1229)">
<path d="M44.3 29.2299H195.79C201.46 29.2299 206.06 24.6299 206.06 18.9599C206.06 13.2899 201.46 8.68994 195.79 8.68994H44.3C38.63 8.68994 34.03 13.2899 34.03 18.9599C34.03 24.6299 38.63 29.2299 44.3 29.2299Z" fill="black" fill-opacity="0.05"/>
<path d="M10.27 72.82H78.1C83.77 72.82 88.37 68.22 88.37 62.55C88.37 56.88 83.77 52.28 78.1 52.28H10.27C4.6 52.28 0 56.88 0 62.55C0 68.22 4.6 72.82 10.27 72.82Z" fill="black" fill-opacity="0.05"/>
<path d="M140.41 72.8198H208.24C213.91 72.8198 218.51 68.2198 218.51 62.5498C218.51 56.8798 213.91 52.2798 208.24 52.2798H140.41C134.74 52.2798 130.14 56.8798 130.14 62.5498C130.14 68.2198 134.74 72.8198 140.41 72.8198Z" fill="black" fill-opacity="0.05"/>
<path d="M64.3801 121.62H188.53C194.2 121.62 198.8 117.02 198.8 111.35C198.8 105.68 194.2 101.08 188.53 101.08H64.3801C58.7101 101.08 54.1101 105.68 54.1101 111.35C54.1201 117.03 58.7101 121.62 64.3801 121.62Z" fill="black" fill-opacity="0.05"/>
<path d="M155.69 106.255C179.113 82.8318 179.113 44.8549 155.69 21.4315C132.266 -1.99195 94.2895 -1.99195 70.8661 21.4315C47.4427 44.8549 47.4427 82.8318 70.8661 106.255C94.2895 129.679 132.266 129.679 155.69 106.255Z" fill="white"/>
<path d="M113.28 7.72C144.23 7.72 169.41 32.9 169.41 63.85C169.41 94.8 144.23 119.98 113.28 119.98C82.33 119.98 57.16 94.79 57.16 63.84C57.16 32.89 82.34 7.72 113.28 7.72ZM113.28 0C78.02 0 49.44 28.58 49.44 63.84C49.44 99.1 78.02 127.68 113.28 127.68C148.54 127.68 177.12 99.1 177.12 63.84C177.12 28.58 148.54 0 113.28 0Z" fill="#5D605F"/>
<path d="M191.67 154.69C189.75 154.69 187.95 153.94 186.59 152.58L164.34 130.33C161.54 127.53 161.54 122.97 164.34 120.16L169.61 114.89C170.97 113.53 172.77 112.78 174.69 112.78C176.61 112.78 178.41 113.53 179.77 114.89L202.02 137.14C203.38 138.5 204.13 140.3 204.13 142.22C204.13 144.14 203.38 145.94 202.02 147.3L196.75 152.57C195.4 153.95 193.59 154.69 191.67 154.69Z" fill="white"/>
<path d="M174.7 116.66C175.21 116.66 176.21 116.79 177.05 117.64L199.3 139.89C200.6 141.19 200.6 143.3 199.3 144.6L194.03 149.87C193.18 150.72 192.19 150.85 191.68 150.85C191.17 150.85 190.17 150.72 189.33 149.87L167.08 127.62C165.78 126.32 165.78 124.21 167.08 122.91L172.35 117.64C173.2 116.79 174.19 116.66 174.7 116.66ZM174.7 108.94C171.87 108.94 169.05 110.02 166.89 112.18L161.62 117.45C157.31 121.76 157.31 128.76 161.62 133.07L183.87 155.32C186.03 157.48 188.85 158.56 191.68 158.56C194.51 158.56 197.33 157.48 199.49 155.32L204.76 150.05C209.07 145.74 209.07 138.74 204.76 134.43L182.51 112.18C180.36 110.02 177.53 108.94 174.7 108.94Z" fill="#5D605F"/>
<path d="M164.18 114.89L157.1 107.82" stroke="#5D605F" stroke-width="7.7171" stroke-miterlimit="10"/>
</g>
<defs>
<clipPath id="clip0_493_1229">
<rect width="238.51" height="158.55" fill="white"/>
</clipPath>
</defs>
</svg>
