<svg width="18" height="18" viewBox="0 0 18 18" fill="none" xmlns="http://www.w3.org/2000/svg">
<g clip-path="url(#clip0)">
<path d="M8.84658 6.75683C9.44813 6.75683 10.0138 6.99106 10.4391 7.41656C10.8646 7.84205 11.0989 8.40756 11.0989 9.0091C11.0989 9.61065 10.8646 10.1763 10.4391 10.6016C10.0138 11.0271 9.44813 11.2614 8.84658 11.2614C8.24503 11.2614 7.67934 11.0271 7.25403 10.6016C6.82853 10.1763 6.5943 9.61065 6.5943 9.0091C6.5943 8.40756 6.82853 7.84186 7.25403 7.41656C7.67934 6.99106 8.24485 6.75683 8.84658 6.75683ZM8.84658 5.25531C6.77335 5.25531 5.09277 6.93588 5.09277 9.0091C5.09277 11.0823 6.77335 12.7629 8.84658 12.7629C10.9198 12.7629 12.6004 11.0823 12.6004 9.0091C12.6004 6.93588 10.9196 5.25531 8.84658 5.25531Z" fill="white"/>
<path d="M10.3171 1.50152V2.11301C10.3171 2.7123 10.6734 3.25416 11.2237 3.49159C11.6128 3.65938 11.9853 3.86979 12.331 4.1166C12.5912 4.30241 12.8969 4.39607 13.2036 4.39607C13.4718 4.39607 13.7406 4.32437 13.9801 4.17966L14.5037 3.86322L16.025 6.38088L15.5073 6.69358C14.9942 7.00364 14.7147 7.58904 14.7962 8.18289C14.8335 8.45486 14.8525 8.73282 14.8525 9.00891C14.8525 9.28031 14.8341 9.55359 14.798 9.82142C14.7181 10.4141 14.9976 10.9981 15.5096 11.3074L16.025 11.6187L14.5037 14.1364L13.9938 13.8282C13.7543 13.6835 13.4855 13.6118 13.2173 13.6118C12.9097 13.6118 12.6028 13.7062 12.3421 13.8932C11.993 14.1435 11.6167 14.3566 11.2237 14.5262C10.6736 14.7637 10.3171 15.3055 10.3171 15.9048V16.4981H7.37548V15.9048C7.37548 15.3055 7.01925 14.7637 6.46894 14.5262C6.07592 14.3566 5.6996 14.1437 5.3505 13.8932C5.0898 13.7062 4.78292 13.6118 4.4753 13.6118C4.20709 13.6118 3.93832 13.6835 3.69883 13.8282L3.18888 14.1364L1.66784 11.6189L2.18323 11.3076C2.69525 10.9982 2.97472 10.4145 2.89477 9.82161C2.85873 9.55378 2.84034 9.2805 2.84034 9.0091C2.84034 8.73301 2.85929 8.45504 2.89664 8.18308C2.9781 7.58923 2.69863 7.00383 2.18549 6.69376L1.66784 6.38107L3.18906 3.8634L3.71272 4.17985C3.95202 4.32456 4.22079 4.39625 4.48919 4.39625C4.79569 4.39625 5.10162 4.3026 5.36176 4.11678C5.70767 3.86997 6.08024 3.65957 6.46913 3.49178C7.01925 3.25435 7.37567 2.71249 7.37567 2.1132V1.50152H10.3171ZM10.7623 0H6.93028C6.34694 0 5.87396 0.472978 5.87396 1.05632V2.11301C5.38297 2.32491 4.91919 2.58768 4.48919 2.89455L3.58453 2.34781C3.41373 2.24458 3.22529 2.19541 3.03929 2.19541C2.68155 2.19541 2.33264 2.37709 2.13425 2.70555L0.152433 5.98561C-0.149185 6.48486 0.0109147 7.13427 0.510169 7.43589L1.40883 7.97887C1.36266 8.31559 1.33863 8.65944 1.33863 9.00891C1.33863 9.35257 1.3619 9.69079 1.40657 10.0223L0.510169 10.5639C0.0109147 10.8655 -0.149372 11.5149 0.152433 12.0142L2.13406 15.2943C2.33245 15.6227 2.68155 15.8044 3.0391 15.8044C3.2251 15.8044 3.41354 15.7552 3.58434 15.652L4.4753 15.1137C4.90924 15.4249 5.37771 15.691 5.87396 15.9052V16.9437C5.87396 17.527 6.34694 18 6.93028 18H10.7623C11.3457 18 11.8187 17.527 11.8187 16.9437V15.9052C12.3149 15.691 12.7834 15.4249 13.2173 15.1137L14.1083 15.652C14.2791 15.7552 14.4675 15.8044 14.6535 15.8044C15.0113 15.8044 15.3602 15.6227 15.5586 15.2943L17.5402 12.0144C17.8418 11.5151 17.6817 10.8657 17.1825 10.5641L16.286 10.0224C16.3307 9.69098 16.354 9.35276 16.354 9.0091C16.354 8.65963 16.33 8.31578 16.2838 7.97906L17.1825 7.43608C17.6817 7.13446 17.842 6.48505 17.5402 5.9858L15.5586 2.70573C15.3602 2.37728 15.0111 2.19559 14.6535 2.19559C14.4675 2.19559 14.2791 2.24477 14.1083 2.348L13.2036 2.89474C12.7736 2.58768 12.3097 2.3251 11.8188 2.1132V1.0565C11.8187 0.472978 11.3457 0 10.7623 0Z" fill="white"/>
</g>
<defs>
<clipPath id="clip0">
<rect width="17.6926" height="18" fill="white"/>
</clipPath>
</defs>
</svg>
