<svg width="32" height="32" viewBox="0 0 32 32" fill="none" xmlns="http://www.w3.org/2000/svg">
<circle cx="16" cy="16" r="16" fill="#E9FCF9"/>
<g clip-path="url(#clip0_1217_1169)">
<path d="M24.2575 12H23.5V11.2451V9.73612C23.5 9.32962 23.1704 9 22.7639 9H9.24513C8.00519 9 7 10.0052 7 11.2451V12.7427V16.5V22.5075C7 22.9176 7.33244 23.25 7.7425 23.25H24.2575C24.6676 23.25 25 22.9176 25 22.5075V20.2596V14.9904V12.7425C25 12.3324 24.6676 12 24.2575 12ZM9.24513 10.5H22V11.2451V11.9903H9.24513C8.83431 11.9903 8.5 11.6559 8.5 11.2451C8.5 10.8343 8.83431 10.5 9.24513 10.5ZM23.5 18.7596H18.6346C18.0089 18.7596 17.5 18.2505 17.5 17.625C17.5 16.9995 18.0091 16.4904 18.6346 16.4904H23.5V18.7596ZM18.6346 14.9904C17.1796 14.9904 16 16.17 16 17.625C16 19.08 17.1796 20.2596 18.6346 20.2596H23.5V21.75H8.5V16.5V13.5H23.5V14.9904H18.6346Z" fill="#02CBA9"/>
</g>
<defs>
<clipPath id="clip0_1217_1169">
<rect width="18" height="14.25" fill="white" transform="translate(7 9)"/>
</clipPath>
</defs>
</svg>
