<svg width="172" height="172" viewBox="0 0 172 172" fill="none" xmlns="http://www.w3.org/2000/svg">
<path d="M86 172C133.496 172 172 133.496 172 86C172 38.5035 133.496 0 86 0C38.5035 0 0 38.5035 0 86C0 133.496 38.5035 172 86 172Z" fill="#26CE2F"/>
<g opacity="0.5">
<path opacity="0.5" d="M68.2549 125.945C66.3848 125.945 64.5811 125.197 63.2596 123.876L46.1128 106.729C43.3534 103.97 43.3534 99.498 46.1128 96.7385C48.8722 93.9791 53.3439 93.9791 56.1033 96.7385L68.2549 108.89L115.905 61.2398C118.665 58.4803 123.136 58.4803 125.896 61.2398C128.655 63.9992 128.655 68.4708 125.896 71.2303L73.2501 123.876C71.9203 125.197 70.125 125.945 68.2549 125.945Z" fill="#20A824"/>
</g>
<path d="M68.2549 119.388C66.3848 119.388 64.5811 118.64 63.2596 117.318L46.1128 100.171C43.3534 97.4118 43.3534 92.9401 46.1128 90.1807C48.8722 87.4212 53.3439 87.4212 56.1033 90.1807L68.2549 102.332L115.905 54.6819C118.665 51.9224 123.136 51.9224 125.896 54.6819C128.655 57.4413 128.655 61.913 125.896 64.6724L73.2501 117.318C71.9203 118.64 70.125 119.388 68.2549 119.388Z" fill="white"/>
</svg>
