<svg width="312" height="253" viewBox="0 0 312 253" fill="none" xmlns="http://www.w3.org/2000/svg">
<path d="M166.249 172.195L301.558 172.152C303.247 172.151 304.621 170.783 304.618 169.081L304.598 98.7818C304.597 97.0929 303.229 95.7193 301.527 95.7216L166.217 95.7507C164.528 95.7517 163.154 97.1197 163.156 98.8223L163.176 169.121C163.179 170.824 164.545 172.184 166.249 172.195Z" fill="url(#paint0_linear_145_2478)"/>
<path d="M234.933 150.253C243.936 149.363 250.512 141.342 249.621 132.339C248.73 123.336 240.71 116.76 231.707 117.651C222.704 118.542 216.128 126.562 217.019 135.565C217.91 144.568 225.93 151.144 234.933 150.253Z" fill="#FC318B"/>
<path d="M237.808 136.36L232.313 136.364L232.308 129.179C232.304 127.878 231.259 126.833 229.958 126.837C228.657 126.841 227.611 127.886 227.615 129.187L227.616 138.711C227.62 140.012 228.665 141.058 229.966 141.054L237.816 141.052C239.117 141.048 240.162 140.003 240.158 138.702C240.156 137.415 239.111 136.37 237.808 136.36Z" fill="white"/>
<path d="M172.891 106.263L294.855 106.225L294.868 161.628L172.905 161.666L172.891 106.263ZM168.62 101.992L168.636 165.951L299.141 165.912L299.113 101.969L168.62 101.992Z" fill="#FC318B"/>
<path d="M282.208 101.952C282.205 111.298 289.793 118.867 299.138 118.87L299.126 101.954L282.208 101.952Z" fill="#FC318B"/>
<path d="M168.619 118.91C177.964 118.913 185.533 111.325 185.536 101.98L168.62 101.992L168.619 118.91Z" fill="#FC318B"/>
<path d="M185.552 165.938C185.555 156.593 177.967 149.023 168.622 149.02L168.634 165.937L185.552 165.938Z" fill="#FC318B"/>
<path d="M299.141 148.981C289.796 148.978 282.226 156.566 282.223 165.911L299.14 165.898L299.141 148.981Z" fill="#FC318B"/>
<path d="M273.853 138.124C276.163 137.895 277.85 135.838 277.621 133.528C277.393 131.219 275.335 129.532 273.026 129.761C270.716 129.989 269.029 132.046 269.258 134.356C269.487 136.665 271.544 138.352 273.853 138.124Z" fill="#FC318B"/>
<path d="M194.749 138.143C197.059 137.914 198.746 135.857 198.517 133.547C198.289 131.238 196.231 129.551 193.922 129.78C191.612 130.008 189.925 132.065 190.154 134.375C190.383 136.684 192.44 138.371 194.749 138.143Z" fill="#FC318B"/>
<path d="M106.956 69.8591L211.995 69.8259C213.306 69.8251 214.373 68.7631 214.371 67.4414L214.355 12.8692C214.354 11.5582 213.292 10.4918 211.971 10.4936L106.931 10.5162C105.62 10.517 104.554 11.579 104.555 12.9007L104.571 67.4728C104.573 68.7945 105.634 69.8502 106.956 69.8591Z" fill="url(#paint1_linear_145_2478)"/>
<path d="M160.275 52.8262C167.264 52.1347 172.369 45.9085 171.677 38.9197C170.986 31.9308 164.759 26.8259 157.771 27.5174C150.782 28.2089 145.677 34.4351 146.368 41.4239C147.06 48.4127 153.286 53.5177 160.275 52.8262Z" fill="#FC318B"/>
<path d="M162.507 42.0407L158.24 42.0437L158.237 36.4663C158.233 35.4564 157.422 34.6447 156.412 34.6479C155.402 34.6511 154.591 35.4622 154.594 36.4721L154.595 43.866C154.598 44.876 155.409 45.6877 156.419 45.6845L162.512 45.6834C163.522 45.6802 164.334 44.8691 164.331 43.8592C164.329 42.8599 163.518 42.0481 162.507 42.0407Z" fill="white"/>
<path d="M112.112 18.6765L206.791 18.6474L206.802 61.6562L112.123 61.6853L112.112 18.6765ZM108.797 15.3613L108.809 65.0116L210.118 64.982L210.097 15.3434L108.797 15.3613Z" fill="#FC318B"/>
<path d="M196.973 15.3305C196.971 22.585 202.862 28.4612 210.116 28.4635L210.106 15.3314L196.973 15.3305Z" fill="#FC318B"/>
<path d="M108.796 28.4944C116.051 28.4966 121.927 22.6061 121.929 15.3516L108.797 15.3613L108.796 28.4944Z" fill="#FC318B"/>
<path d="M121.941 65.0018C121.943 57.7473 116.053 51.8712 108.798 51.869L108.808 65.0009L121.941 65.0018Z" fill="#FC318B"/>
<path d="M210.119 51.8384C202.864 51.8362 196.988 57.7267 196.986 64.9812L210.118 64.9715L210.119 51.8384Z" fill="#FC318B"/>
<path d="M190.488 43.4095C192.281 43.2321 193.59 41.635 193.413 39.8422C193.236 38.0495 191.638 36.7399 189.846 36.9173C188.053 37.0947 186.743 38.6918 186.921 40.4846C187.098 42.2774 188.695 43.5869 190.488 43.4095Z" fill="#FC318B"/>
<path d="M129.081 43.4244C130.874 43.247 132.183 41.6499 132.006 39.8571C131.828 38.0643 130.231 36.7548 128.438 36.9322C126.646 37.1096 125.336 38.7067 125.514 40.4995C125.691 42.2923 127.288 43.6018 129.081 43.4244Z" fill="#FC318B"/>
<path d="M128.466 244.343L213.826 244.316C214.891 244.316 215.758 243.453 215.756 242.379L215.744 198.031C215.743 196.965 214.88 196.099 213.806 196.1L128.445 196.118C127.38 196.119 126.513 196.982 126.515 198.056L126.527 242.404C126.529 243.478 127.391 244.336 128.466 244.343Z" fill="url(#paint2_linear_145_2478)"/>
<path d="M171.795 230.501C177.474 229.939 181.623 224.88 181.061 219.2C180.499 213.521 175.439 209.372 169.76 209.934C164.08 210.496 159.932 215.556 160.494 221.235C161.056 226.915 166.115 231.063 171.795 230.501Z" fill="#FC318B"/>
<path d="M173.609 221.737L170.142 221.74L170.139 217.207C170.136 216.386 169.477 215.727 168.656 215.729C167.835 215.732 167.176 216.391 167.178 217.212L167.179 223.22C167.182 224.041 167.841 224.701 168.661 224.698L173.613 224.697C174.434 224.695 175.094 224.036 175.091 223.215C175.089 222.403 174.43 221.743 173.609 221.737Z" fill="white"/>
<path d="M132.656 202.75L209.597 202.726L209.606 237.678L132.665 237.701L132.656 202.75ZM129.962 200.056L129.971 240.405L212.301 240.38L212.283 200.041L129.962 200.056Z" fill="#FC318B"/>
<path d="M201.619 200.031C201.617 205.926 206.404 210.702 212.3 210.703L212.292 200.032L201.619 200.031Z" fill="#FC318B"/>
<path d="M129.961 210.728C135.856 210.73 140.631 205.943 140.633 200.048L129.962 200.056L129.961 210.728Z" fill="#FC318B"/>
<path d="M140.643 240.397C140.645 234.502 135.858 229.726 129.963 229.724L129.971 240.396L140.643 240.397Z" fill="#FC318B"/>
<path d="M212.301 229.698C206.406 229.696 201.63 234.483 201.628 240.379L212.3 240.371L212.301 229.698Z" fill="#FC318B"/>
<path d="M196.348 222.849C197.805 222.705 198.869 221.407 198.725 219.95C198.581 218.493 197.283 217.429 195.826 217.573C194.369 217.717 193.305 219.015 193.449 220.472C193.593 221.929 194.891 222.993 196.348 222.849Z" fill="#FC318B"/>
<path d="M146.445 222.862C147.902 222.717 148.966 221.419 148.822 219.963C148.678 218.506 147.38 217.442 145.923 217.586C144.466 217.73 143.402 219.028 143.546 220.485C143.69 221.942 144.988 223.006 146.445 222.862Z" fill="#FC318B"/>
<line x1="142" y1="156" x2="17" y2="156" stroke="#FC318B" stroke-opacity="0.2" stroke-width="2"/>
<line x1="90" y1="56" x2="28" y2="56" stroke="#FC318B" stroke-opacity="0.2" stroke-width="2"/>
<line x1="111" y1="237" x2="49" y2="237" stroke="#FC318B" stroke-opacity="0.2" stroke-width="2"/>
<line x1="142" y1="135" y2="135" stroke="#FC318B" stroke-opacity="0.2" stroke-width="2"/>
<line x1="90" y1="39" x2="20" y2="39" stroke="#FC318B" stroke-opacity="0.2" stroke-width="2"/>
<line x1="111" y1="221" x2="41" y2="221" stroke="#FC318B" stroke-opacity="0.2" stroke-width="2"/>
<line x1="142" y1="114" x2="17" y2="114" stroke="#FC318B" stroke-opacity="0.2" stroke-width="2"/>
<line x1="90" y1="22" x2="28" y2="22" stroke="#FC318B" stroke-opacity="0.2" stroke-width="2"/>
<line x1="111" y1="205" x2="49" y2="205" stroke="#FC318B" stroke-opacity="0.2" stroke-width="2"/>
<defs>
<linearGradient id="paint0_linear_145_2478" x1="160.402" y1="141.22" x2="307.365" y2="126.679" gradientUnits="userSpaceOnUse">
<stop stop-color="#EFACCD"/>
<stop offset="1" stop-color="#EFA6CD"/>
</linearGradient>
<linearGradient id="paint1_linear_145_2478" x1="102.417" y1="45.8137" x2="216.503" y2="34.5251" gradientUnits="userSpaceOnUse">
<stop stop-color="#EFACCD"/>
<stop offset="1" stop-color="#EFA6CD"/>
</linearGradient>
<linearGradient id="paint2_linear_145_2478" x1="124.777" y1="224.803" x2="217.489" y2="215.629" gradientUnits="userSpaceOnUse">
<stop stop-color="#EFACCD"/>
<stop offset="1" stop-color="#EFA6CD"/>
</linearGradient>
</defs>
</svg>
