<svg width="40" height="40" viewBox="0 0 40 40" fill="none" xmlns="http://www.w3.org/2000/svg">
<rect width="40" height="40" fill="#F1F1F1"/>
<path d="M25.1633 25.8661C23.7033 25.8864 22.4537 25.3654 21.3605 24.4323C20.7822 23.9388 20.679 23.203 21.1071 22.6729C21.5985 22.0623 22.2698 22.0023 22.935 22.5029C24.397 23.6029 25.9429 23.6599 27.2589 22.5874C28.346 21.7 28.7179 20.5176 28.3654 19.1621C28.0211 17.8393 27.123 17.0486 25.7906 16.7443C24.3337 16.4105 22.6632 17.3081 21.902 18.7734C21.4116 19.7167 21.056 20.714 20.6576 21.6939C19.832 23.723 18.4241 25.1405 16.2642 25.687C14.8603 26.0373 13.3759 25.8567 12.098 25.18C10.8201 24.5033 9.83962 23.3787 9.34614 22.0236C8.33056 19.1743 9.61384 15.9648 12.3561 14.7244C14.5875 13.7159 16.7107 13.9978 18.6182 15.571C19.2558 16.0961 19.3589 16.8461 18.9094 17.4027C18.4598 17.9593 17.6639 18 17.0182 17.4861C14.9043 15.803 12.1405 16.9662 11.6154 19.2649C11.3089 20.599 11.7175 21.7387 12.773 22.5955C13.7528 23.3933 14.8767 23.5521 16.0741 23.1043C17.4861 22.5711 18.1503 21.3948 18.6805 20.1044C18.9544 19.4379 19.1985 18.7581 19.4887 18.0987C20.5728 15.6331 22.4517 14.2431 25.1705 14.1728C27.9291 14.1016 30.4272 16.2457 30.9084 18.9708C31.0445 19.7311 31.0288 20.5106 30.8622 21.2649C30.6956 22.0191 30.3814 22.7332 29.9375 23.3664C29.4936 23.9996 28.9287 24.5395 28.2752 24.9551C27.6217 25.3708 26.8923 25.654 26.1288 25.7888C25.8111 25.8427 25.4852 25.8417 25.1633 25.8661Z" fill="#E69FBF"/>
</svg>
