<svg width="26" height="26" viewBox="0 0 26 26" fill="none" xmlns="http://www.w3.org/2000/svg">
<path d="M6.36396 6.37041C6.07122 6.66316 6.07122 7.14045 6.36396 7.43319L11.6683 12.7376L6.36714 18.0387C6.07122 18.3283 6.07122 18.8056 6.36396 19.0983C6.6567 19.3911 7.134 19.3911 7.42674 19.0983L12.7311 13.794L18.0355 19.0983C18.3282 19.3911 18.8055 19.3911 19.0982 19.0983C19.391 18.8056 19.391 18.3283 19.0982 18.0356L13.7939 12.7312L19.0982 7.42683C19.391 7.13409 19.391 6.65679 19.0982 6.36405C18.8055 6.07131 18.3282 6.07131 18.0355 6.36405L12.7279 11.6716L7.42674 6.37041C7.134 6.07767 6.6567 6.07767 6.36396 6.37041Z" fill="#352F31"/>
</svg>
