<svg width="18" height="18" viewBox="0 0 18 18" fill="none" xmlns="http://www.w3.org/2000/svg">
<path d="M17.2465 0H0.753477C0.337369 0 0 0.337369 0 0.753477V17.2465C0 17.6626 0.337369 18 0.753477 18H17.2465C17.6626 18 18 17.6626 18 17.2465V0.753477C18 0.337369 17.6626 0 17.2465 0ZM16.493 1.50695V9.21936L12.6665 5.39282C12.3723 5.09859 11.8951 5.09859 11.6009 5.39282L6.08904 10.9047L4.30009 9.11575C4.00586 8.82152 3.52872 8.82152 3.23449 9.11575L1.50695 10.8435V1.50695H16.493ZM1.50695 16.493V12.9745L3.76739 10.7141L5.55633 12.503C5.6976 12.6443 5.88936 12.7238 6.08904 12.7238C6.28871 12.7238 6.48047 12.6445 6.62174 12.503L12.1336 6.99114L16.493 11.3506V16.493H1.50695Z" fill="#352F31"/>
<path d="M4.52105 5.1909C4.93716 5.1909 5.27453 4.85353 5.27453 4.43742C5.27453 4.02131 4.93716 3.68394 4.52105 3.68394C4.10495 3.68394 3.76758 4.02131 3.76758 4.43742C3.76758 4.85353 4.10495 5.1909 4.52105 5.1909Z" fill="#352F31"/>
</svg>
