<svg width="24" height="24" viewBox="0 0 24 24" fill="none" xmlns="http://www.w3.org/2000/svg">
<path d="M23.7278 9.3595L20.3127 5.8006C19.9324 5.40435 19.2895 5.38354 18.9006 5.77146C18.5237 6.14738 18.5156 6.75743 18.8857 7.14315L20.5848 8.91378H14.6944C14.1535 8.91378 13.7148 9.3524 13.7148 9.89338C13.7148 10.4344 14.1535 10.873 14.6944 10.873H20.733L18.9148 12.6145C18.5242 12.9887 18.5107 13.6088 18.8849 13.9996C19.0774 14.2004 19.3346 14.3016 19.5925 14.3016C19.8361 14.3016 20.0801 14.2112 20.2699 14.0295L23.6985 10.7451C23.8863 10.5654 23.9948 10.3183 24.0002 10.0584C24.0058 9.79861 23.9079 9.54709 23.7278 9.3595Z" fill="black"/>
<path d="M15.6705 13.3105C15.1385 13.3105 14.7063 13.7359 14.6945 14.2649H14.694V14.2867V15.2961V17.2406H8.79952V6.06093C8.79952 5.70558 8.60703 5.37815 8.29674 5.20525L3.52632 2.54661H14.694V4.47887V5.48835V5.49741H14.6943C14.6992 6.03252 15.1341 6.46477 15.6705 6.46477C16.2068 6.46477 16.6417 6.03252 16.6466 5.49741H16.6532V1.56651C16.6532 1.02577 16.2149 0.587402 15.6741 0.587402H0.979113C0.438372 0.587402 0 1.02577 0 1.56651V2.24856V2.24832C0 2.24856 0 2.24856 0 2.24881V18.6241C0 18.9797 0.192492 19.3071 0.503271 19.48L7.34359 23.2875C7.49788 23.3732 7.66049 23.4126 7.81894 23.4126C8.33127 23.4126 8.79977 23.0024 8.79977 22.4316V19.1998H15.6744C16.2151 19.1998 16.6535 18.7615 16.6535 18.2207V14.2649H16.6466C16.6346 13.7359 16.2024 13.3105 15.6705 13.3105ZM6.84032 20.765L1.9592 18.0481V3.91609L6.84032 6.63645V20.765Z" fill="black"/>
</svg>
