<svg width="24" height="24" viewBox="0 0 24 24" fill="none" xmlns="http://www.w3.org/2000/svg">
<path d="M22.9198 4.01105H1.06769C1.06769 4.01105 1.06769 4.01105 1.06744 4.01105H1.01197C0.51898 4.01105 0.109943 4.36786 0.0277356 4.83737C0.00974492 4.91483 0 4.99553 0 5.07874V18.909C0 18.983 0.0074961 19.055 0.0217387 19.1247C0.0877043 19.6127 0.505737 19.989 1.01197 19.989H6.92589C6.92664 19.9847 6.92714 19.9807 6.92789 19.9765H17.0846C17.0854 19.9807 17.0859 19.9847 17.0866 19.989H23.0005C23.5525 19.989 24 19.5415 24 18.9895V13.0761C23.9958 13.0753 23.9918 13.0748 23.9875 13.0741V10.9259C23.9918 10.9252 23.9958 10.9247 24 10.9239V5.01053C24 4.45856 23.5525 4.01105 23.0005 4.01105H22.9198C22.9201 4.01105 22.9201 4.01105 22.9198 4.01105ZM6.92339 17.9778C6.49687 15.4683 4.5119 13.4904 1.99896 13.0741V10.9262C4.5159 10.5092 6.50336 8.5252 6.92539 6.01001H17.0869C17.5074 8.51695 19.4831 10.4962 21.9883 10.9219V13.0781C19.4874 13.5031 17.5139 15.4766 17.0888 17.9775H6.92339V17.9778ZM21.9885 8.87976C21.3079 8.7031 20.684 8.34779 20.1735 7.83755C19.66 7.32407 19.3034 6.69565 19.1278 6.01001H21.9885V8.87976ZM2.01145 8.88326V6.01001H4.88471C4.70905 6.6954 4.35248 7.32407 3.839 7.83755C3.32552 8.35104 2.69685 8.7076 2.01145 8.88326ZM2.01145 17.9778V15.117C2.69685 15.2927 3.32552 15.6492 3.839 16.1627C4.34923 16.673 4.70455 17.2971 4.88121 17.9778H2.01145ZM19.1313 17.9778C19.3079 17.2971 19.6633 16.6732 20.1735 16.1627C20.6837 15.6522 21.3079 15.2972 21.9885 15.1205V17.9778H19.1313Z" fill="black"/>
<path d="M10.9975 8.98495C10.4456 8.98495 9.99805 9.43247 9.99805 9.98443V13.9823C9.99805 14.5343 10.4456 14.9818 10.9975 14.9818H13.9959C14.5479 14.9818 14.9954 14.5343 14.9954 13.9823C14.9954 13.4304 14.5479 12.9828 13.9959 12.9828H11.997V9.98443C11.997 9.43222 11.5495 8.98495 10.9975 8.98495Z" fill="black"/>
</svg>
