<svg width="30" height="24" viewBox="0 0 30 24" fill="none" xmlns="http://www.w3.org/2000/svg">
<g filter="url(#filter0_d_887_1008)">
<path d="M20.6327 18.3994C19.0399 18.4216 17.6768 17.8532 16.4842 16.8352C15.8533 16.2968 15.7407 15.4942 16.2077 14.9159C16.7439 14.2498 17.4762 14.1843 18.2018 14.7305C19.7968 15.9305 21.4831 15.9927 22.9187 14.8226C24.1047 13.8546 24.5104 12.5646 24.1259 11.086C23.7502 9.64283 22.7705 8.78027 21.3171 8.44835C19.7277 8.08424 17.9053 9.06335 17.0749 10.6619C16.5399 11.691 16.152 12.7789 15.7173 13.8479C14.8167 16.0615 13.2808 17.6079 10.9246 18.204C9.39307 18.5862 7.77368 18.3891 6.37964 17.6509C4.9856 16.9127 3.91595 15.6858 3.37761 14.2076C2.2697 11.0993 3.66964 7.59801 6.66122 6.24479C9.0955 5.14467 11.4116 5.45216 13.4926 7.16839C14.1881 7.74121 14.3007 8.55936 13.8102 9.16659C13.3198 9.77382 12.4516 9.81823 11.7471 9.25762C9.44103 7.4215 6.42604 8.69036 5.85314 11.1981C5.51876 12.6535 5.96459 13.8968 7.11597 14.8315C8.18487 15.7018 9.41093 15.875 10.7172 15.3865C12.2576 14.8048 12.9821 13.5216 13.5606 12.1139C13.8593 11.3868 14.1257 10.6453 14.4422 9.92591C15.6248 7.23611 17.6746 5.7197 20.6405 5.6431C23.6499 5.5654 26.3751 7.9044 26.9001 10.8773C27.0486 11.7067 27.0314 12.5571 26.8497 13.3799C26.6679 14.2027 26.3251 14.9817 25.8409 15.6725C25.3566 16.3633 24.7404 16.9522 24.0275 17.4056C23.3146 17.859 22.5189 18.1681 21.686 18.315C21.3394 18.3738 20.9838 18.3727 20.6327 18.3994Z" fill="url(#paint0_linear_887_1008)"/>
</g>
<defs>
<filter id="filter0_d_887_1008" x="0" y="2.60001" width="30" height="18.8" filterUnits="userSpaceOnUse" color-interpolation-filters="sRGB">
<feFlood flood-opacity="0" result="BackgroundImageFix"/>
<feColorMatrix in="SourceAlpha" type="matrix" values="0 0 0 0 0 0 0 0 0 0 0 0 0 0 0 0 0 0 127 0" result="hardAlpha"/>
<feOffset/>
<feGaussianBlur stdDeviation="1.5"/>
<feComposite in2="hardAlpha" operator="out"/>
<feColorMatrix type="matrix" values="0 0 0 0 0.92549 0 0 0 0 0.32549 0 0 0 0 0.596078 0 0 0 0.4 0"/>
<feBlend mode="normal" in2="BackgroundImageFix" result="effect1_dropShadow_887_1008"/>
<feBlend mode="normal" in="SourceGraphic" in2="effect1_dropShadow_887_1008" result="shape"/>
</filter>
<linearGradient id="paint0_linear_887_1008" x1="3" y1="12" x2="27" y2="12" gradientUnits="userSpaceOnUse">
<stop stop-color="#EC5398"/>
<stop offset="1" stop-color="#BD4BDA"/>
</linearGradient>
</defs>
</svg>
