<svg width="18" height="12" viewBox="0 0 18 12" fill="none" xmlns="http://www.w3.org/2000/svg">
<path d="M17.1899 0H0.80077C0.80077 0 0.80077 0 0.800583 0H0.75898C0.389235 0 0.0824571 0.267611 0.0208017 0.61974C0.00730869 0.677834 0 0.738365 0 0.80077V11.1735C0 11.229 0.00562207 11.2829 0.016304 11.3352C0.0657782 11.7012 0.379302 11.9834 0.75898 11.9834H5.19442C5.19498 11.9803 5.19536 11.9773 5.19592 11.9741H12.8135C12.814 11.9773 12.8144 11.9803 12.8149 11.9834H17.2504C17.6644 11.9834 18 11.6478 18 11.2338V6.79877C17.9968 6.79821 17.9938 6.79783 17.9906 6.79727V5.18617C17.9938 5.18561 17.9968 5.18524 18 5.18467V0.74961C18 0.335638 17.6644 0 17.2504 0H17.1899C17.19 0 17.19 0 17.1899 0ZM5.19254 10.475C4.87265 8.59296 3.38392 7.10948 1.49922 6.79727V5.18636C3.38692 4.87359 4.87752 3.38561 5.19404 1.49922H12.8151C13.1305 3.37943 14.6123 4.86384 16.4912 5.18318V6.80027C14.6155 7.11904 13.1354 8.59915 12.8166 10.4749H5.19254V10.475ZM16.4914 3.65154C15.9809 3.51904 15.513 3.25256 15.1301 2.86988C14.745 2.48477 14.4776 2.01345 14.3458 1.49922H16.4914V3.65154ZM1.50859 3.65416V1.49922H3.66353C3.53179 2.01326 3.26436 2.48477 2.87925 2.86988C2.49414 3.25499 2.02263 3.52242 1.50859 3.65416ZM1.50859 10.475V8.32947C2.02263 8.46122 2.49414 8.72864 2.87925 9.11375C3.26193 9.49643 3.52841 9.96456 3.66091 10.475H1.50859ZM14.3485 10.475C14.481 9.96456 14.7474 9.49662 15.1301 9.11375C15.5128 8.73089 15.9809 8.46459 16.4914 8.3321V10.475H14.3485Z" fill="#352F31"/>
</svg>
