<svg width="24" height="24" viewBox="0 0 24 24" fill="none" xmlns="http://www.w3.org/2000/svg">
<g clip-path="url(#clip0)">
<path d="M20.802 11.4983C19.5825 10.1843 16.014 6.75076 11.9955 6.75076C7.986 6.75076 4.4265 10.1663 3.2025 11.4848C2.9325 11.7728 2.9325 12.2228 3.2025 12.5108C4.431 13.8293 7.986 17.2448 11.9955 17.2448C16.014 17.2448 19.587 13.8113 20.802 12.4973C21.0675 12.2183 21.0675 11.7818 20.802 11.4983ZM16.6215 14.1173C15.861 14.6213 15.1005 15.0128 14.3715 15.2873C13.548 15.5933 12.747 15.7508 11.9955 15.7508C11.244 15.7508 10.4475 15.5978 9.624 15.2918C8.895 15.0218 8.139 14.6303 7.3785 14.1263C6.2985 13.4108 5.3985 12.6053 4.791 12.0023C5.3985 11.3993 6.2985 10.5938 7.3785 9.87826C8.139 9.37876 8.895 8.98276 9.624 8.71276C10.4475 8.40676 11.244 8.25376 11.9955 8.25376C12.747 8.25376 13.548 8.41126 14.3715 8.71726C15.1005 8.99176 15.861 9.38326 16.6215 9.88726C17.697 10.5983 18.5925 11.4038 19.2 12.0023C18.597 12.6008 17.697 13.4063 16.6215 14.1173Z" fill="#352F31"/>
<path d="M11.9952 14.2928C13.2502 14.2928 14.2677 13.2753 14.2677 12.0203C14.2677 10.7652 13.2502 9.74777 11.9952 9.74777C10.7401 9.74777 9.72266 10.7652 9.72266 12.0203C9.72266 13.2753 10.7401 14.2928 11.9952 14.2928Z" fill="#352F31"/>
</g>
<defs>
<clipPath id="clip0">
<rect width="18" height="10.4985" fill="white" transform="translate(3 6.75076)"/>
</clipPath>
</defs>
</svg>
