<svg width="24" height="24" viewBox="0 0 24 24" fill="none" xmlns="http://www.w3.org/2000/svg">
<g clip-path="url(#clip0_887_1016)">
<path d="M12.001 4.12211L13.5615 8.92487L14.0105 10.3069H15.4635H20.5135L16.428 13.2751L15.2525 14.1291L15.7015 15.5111L17.262 20.3139L13.1765 17.3456L12.001 16.4914L10.8255 17.3454L6.73998 20.3139L8.30048 15.5111L8.74948 14.1291L7.57398 13.2751L3.48846 10.3069H8.53848H9.99149L10.4405 8.92487L12.001 4.12211ZM12.001 0.523865C11.486 0.523865 10.971 0.819865 10.7787 1.41186L8.53848 8.30687H1.28871C0.0437034 8.30687 -0.474048 9.90012 0.533205 10.6319L6.39847 14.8931L4.15822 21.7881C3.86522 22.6901 4.58172 23.4764 5.38497 23.4764C5.63622 23.4764 5.89597 23.3994 6.13597 23.2251L12.001 18.9636L17.8663 23.2249C18.1063 23.3991 18.366 23.4761 18.6173 23.4761C19.4205 23.4761 20.137 22.6899 19.844 21.7879L17.6038 14.8929L23.469 10.6316C24.4763 9.89986 23.9585 8.30661 22.7135 8.30661H15.4635L13.2232 1.41161C13.031 0.819865 12.516 0.523865 12.001 0.523865Z" fill="black"/>
</g>
<defs>
<clipPath id="clip0_887_1016">
<rect width="24" height="22.9522" fill="white" transform="translate(0 0.523865)"/>
</clipPath>
</defs>
</svg>
