<svg width="24" height="24" viewBox="0 0 24 24" fill="none" xmlns="http://www.w3.org/2000/svg">
<g clip-path="url(#clip0_886_976)">
<path d="M11.9996 13.962C15.8576 13.962 18.9836 10.836 18.9836 6.978C18.9836 3.12 15.8576 0 11.9996 0C8.14163 0 5.01562 3.126 5.01562 6.984C5.01562 10.842 8.14163 13.962 11.9996 13.962ZM8.47763 3.456C9.41963 2.52 10.6676 1.998 11.9996 1.998C13.3316 1.998 14.5796 2.514 15.5216 3.456C16.4636 4.398 16.9796 5.646 16.9796 6.978C16.9796 8.31 16.4636 9.558 15.5216 10.5C14.5796 11.442 13.3316 11.958 11.9996 11.958C10.6676 11.958 9.41963 11.442 8.47763 10.5C7.53563 9.558 7.01963 8.31 7.01963 6.978C7.01963 5.646 7.53563 4.398 8.47763 3.456Z" fill="black"/>
<path d="M16.008 15H7.992C3.582 15 0 18.582 0 22.992C0 23.55 0.45 24 1.008 24H22.998C23.556 24 24.006 23.55 24.006 22.992C24 18.582 20.418 15 16.008 15ZM2.082 22.002C2.286 20.778 2.862 19.65 3.756 18.756C4.89 17.622 6.396 16.998 7.992 16.998H16.002C17.604 16.998 19.11 17.622 20.238 18.756C21.132 19.65 21.708 20.778 21.912 22.002H2.082Z" fill="black"/>
</g>
<defs>
<clipPath id="clip0_886_976">
<rect width="24" height="24" fill="white"/>
</clipPath>
</defs>
</svg>
