<svg width="18" height="14" viewBox="0 0 18 14" fill="none" xmlns="http://www.w3.org/2000/svg">
<g clip-path="url(#clip0)">
<path d="M17.2395 1.4985C17.154 1.4985 17.0685 1.512 16.983 1.539L14.2515 2.385C14.238 1.0665 13.167 0 11.844 0H2.403C1.0755 0 0 1.0755 0 2.403V11.097C0 12.4245 1.0755 13.5 2.403 13.5H11.844C13.1715 13.5 14.247 12.4245 14.247 11.097V11.0925L17.001 11.9115C17.082 11.934 17.1675 11.9475 17.244 11.9475C17.6445 11.9475 17.9955 11.6685 17.9955 11.295V2.16C18 1.782 17.6445 1.4985 17.2395 1.4985ZM12.7485 11.097C12.7485 11.5965 12.3435 12.0015 11.844 12.0015H2.403C1.9035 12.0015 1.4985 11.5965 1.4985 11.097V2.403C1.4985 1.9035 1.9035 1.4985 2.403 1.4985H11.844C12.3435 1.4985 12.7485 1.9035 12.7485 2.403V11.097ZM16.5015 10.1925L14.2515 9.522V3.9555L16.5015 3.258V10.1925Z" fill="#352F31"/>
<path d="M5.99857 3.0015H3.74857C3.33457 3.0015 2.99707 3.339 2.99707 3.753C3.00157 4.1625 3.33457 4.5 3.74857 4.5H5.99857C6.41257 4.5 6.75007 4.1625 6.75007 3.7485C6.75007 3.3345 6.41257 3.0015 5.99857 3.0015Z" fill="#352F31"/>
</g>
<defs>
<clipPath id="clip0">
<rect width="18" height="13.5" fill="white"/>
</clipPath>
</defs>
</svg>
