<svg width="24" height="24" viewBox="0 0 24 24" fill="none" xmlns="http://www.w3.org/2000/svg">
<g clip-path="url(#clip0_887_986)">
<path d="M23.01 6.5H22V5.4935V3.4815C22 2.9395 21.5605 2.5 21.0185 2.5H2.9935C1.34025 2.5 0 3.84025 0 5.4935V7.49025V12.5V20.51C0 21.0568 0.44325 21.5 0.99 21.5H23.01C23.5568 21.5 24 21.0568 24 20.51V17.5128V10.4872V7.49C24 6.94325 23.5568 6.5 23.01 6.5ZM2.9935 4.5H20V5.4935V6.487H2.9935C2.44575 6.487 2 6.04125 2 5.4935C2 4.94575 2.44575 4.5 2.9935 4.5ZM22 15.5128H15.5128C14.6785 15.5128 14 14.834 14 14C14 13.166 14.6788 12.4872 15.5128 12.4872H22V15.5128ZM15.5128 10.4872C13.5728 10.4872 12 12.06 12 14C12 15.94 13.5728 17.5128 15.5128 17.5128H22V19.5H2V12.5V8.5H22V10.4872H15.5128Z" fill="black"/>
</g>
<defs>
<clipPath id="clip0_887_986">
<rect width="24" height="19" fill="white" transform="translate(0 2.5)"/>
</clipPath>
</defs>
</svg>
