<svg width="145" height="166" viewBox="0 0 145 166" fill="none" xmlns="http://www.w3.org/2000/svg">
<mask id="mask0" mask-type="alpha" maskUnits="userSpaceOnUse" x="7" y="0" width="138" height="166">
<rect x="7" width="138" height="166" fill="#C4C4C4"/>
</mask>
<g mask="url(#mask0)">
<path d="M128.09 87.17C128.251 85.59 128.331 83.98 128.331 82.35C128.331 69.08 122.851 57.09 114.041 48.51C115.001 45.81 115.551 42.91 115.551 39.88C115.541 25.59 103.961 14 89.6705 14C80.4905 14 72.4505 18.8 67.8705 26.02C54.3405 26.87 43.6305 38.07 43.6305 51.81C43.6305 52.38 43.6805 52.94 43.7205 53.51C37.5505 61.49 33.8505 71.48 33.8505 82.35C33.8505 83.98 33.9305 85.58 34.0905 87.17C26.0705 97.35 21.2705 110.19 21.2705 124.15C21.2705 157.19 48.0505 183.97 81.0905 183.97C114.131 183.97 140.911 157.19 140.911 124.15C140.911 110.19 136.111 97.35 128.09 87.17Z" fill="url(#paint0_linear)"/>
<path opacity="0.05" d="M78.2711 29.59C78.2711 29.59 47.9011 31.59 52.3611 66.78C52.3611 66.78 49.8111 83.09 63.4011 92.1C63.4011 92.1 69.4111 99.25 53.2511 99.97C52.2411 100.01 34.0911 87.18 34.0911 87.18L24.6211 104.4C24.6211 104.4 34.3211 111.43 34.5311 112.09C39.8511 129.24 49.4211 148.77 49.4211 148.77L61.1911 180.78L97.2811 181.81C97.2811 181.81 123.911 106.12 119.051 102.83C114.191 99.54 95.9111 100.26 95.9111 100.26C95.9111 100.26 91.4011 96.73 94.1411 93.49C96.8811 90.25 111.171 83.23 106.531 61.78C101.891 40.33 86.2811 30.31 78.2711 29.59Z" fill="black"/>
<path d="M89.071 104.6H71.791L74.861 75.88H86.001L89.071 104.6Z" fill="url(#paint1_linear)"/>
<path d="M81.0911 91.29C67.0511 91.29 55.6611 79.9 55.6611 65.86V57.67C55.6611 43.63 67.0511 32.24 81.0911 32.24C95.1311 32.24 106.521 43.63 106.521 57.67V65.86C106.521 79.91 95.1311 91.29 81.0911 91.29Z" fill="#F7E8D0"/>
<path d="M92.5313 202.84H68.3313L52.3613 104.6H108.501L92.5313 202.84Z" fill="#F7E8D0"/>
<path d="M52.3604 120.44C56.7345 120.44 60.2804 116.894 60.2804 112.52C60.2804 108.146 56.7345 104.6 52.3604 104.6C47.9863 104.6 44.4404 108.146 44.4404 112.52C44.4404 116.894 47.9863 120.44 52.3604 120.44Z" fill="#F7E8D0"/>
<path d="M108.501 120.44C112.875 120.44 116.421 116.894 116.421 112.52C116.421 108.146 112.875 104.6 108.501 104.6C104.127 104.6 100.581 108.146 100.581 112.52C100.581 116.894 104.127 120.44 108.501 120.44Z" fill="#F7E8D0"/>
<path d="M66.0011 145.39C74.3351 145.39 81.0911 138.634 81.0911 130.3C81.0911 121.966 74.3351 115.21 66.0011 115.21C57.6672 115.21 50.9111 121.966 50.9111 130.3C50.9111 138.634 57.6672 145.39 66.0011 145.39Z" fill="#F7E8D0"/>
<path d="M96.1808 145.39C104.515 145.39 111.271 138.634 111.271 130.3C111.271 121.966 104.515 115.21 96.1808 115.21C87.8468 115.21 81.0908 121.966 81.0908 130.3C81.0908 138.634 87.8468 145.39 96.1808 145.39Z" fill="#F7E8D0"/>
<path d="M81.0905 124.71C81.0505 127.18 81.2505 129.6 81.7205 131.93C82.2205 134.25 82.9905 136.51 84.2905 138.42C85.5405 140.36 87.3105 141.91 89.3705 143.04C91.4505 144.15 93.7705 144.86 96.1805 145.38C93.7205 145.54 91.1805 145.17 88.8105 144.19C87.6305 143.69 86.5205 143.02 85.5105 142.21C84.5205 141.37 83.6505 140.39 82.9205 139.32C81.4905 137.15 80.7205 134.63 80.4605 132.12C80.2005 129.62 80.3705 127.09 81.0905 124.71Z" fill="#FFDBB9"/>
<path d="M80.6711 124.71C81.3811 127.08 81.5611 129.62 81.3011 132.13C81.0411 134.63 80.271 137.15 78.841 139.33C78.111 140.4 77.2411 141.38 76.2511 142.22C75.2411 143.03 74.121 143.7 72.951 144.2C70.581 145.18 68.0511 145.54 65.5811 145.39C67.9911 144.86 70.3211 144.15 72.3911 143.05C74.4511 141.92 76.2211 140.37 77.4711 138.43C78.7711 136.52 79.5411 134.26 80.0411 131.94C80.5211 129.6 80.7111 127.18 80.6711 124.71Z" fill="#FFDBB9"/>
<path d="M110.99 124.71C111.7 127.08 111.88 129.62 111.62 132.13C111.36 134.63 110.59 137.15 109.16 139.33C108.43 140.4 107.56 141.38 106.57 142.22C105.56 143.03 104.44 143.7 103.27 144.2C100.9 145.18 98.3704 145.54 95.9004 145.39C98.3104 144.86 100.64 144.15 102.71 143.05C104.77 141.92 106.54 140.37 107.79 138.43C109.09 136.52 109.86 134.26 110.36 131.94C110.83 129.6 111.03 127.18 110.99 124.71Z" fill="#FFDBB9"/>
<path d="M52.3611 123.85C52.1911 126.34 52.2311 128.8 52.5311 131.2C52.8511 133.59 53.4711 135.93 54.6111 137.97C55.7011 140.04 57.4011 141.71 59.4211 142.94C61.4811 144.12 63.8311 144.86 66.2711 145.39C63.7711 145.54 61.2011 145.14 58.8211 144.07C57.6411 143.52 56.5511 142.77 55.5711 141.88C54.6011 140.98 53.8111 139.9 53.1611 138.76C51.9011 136.44 51.3211 133.85 51.2511 131.3C51.1811 128.76 51.5211 126.21 52.3611 123.85Z" fill="#FFDBB9"/>
<path d="M77.8213 32.45C77.8213 32.45 78.1813 64.19 106.521 65.86C106.521 65.86 107.781 51.12 102.881 50.91C97.9813 50.7 81.0913 32.24 81.0913 32.24L77.8213 32.45Z" fill="#FFDBB9"/>
<path d="M23.1609 151.06C22.4109 151.06 21.6509 150.95 20.9109 150.71C18.2009 149.85 16.2409 147.51 15.8409 144.69L8.07087 88.97C7.51087 84.93 10.3309 81.2 14.3709 80.63C18.4109 80.06 22.1409 82.89 22.7109 86.93L28.3609 127.43L46.2509 108.51C49.0509 105.55 53.7309 105.42 56.6909 108.22C59.6509 111.02 59.7809 115.7 56.9809 118.66L28.5309 148.75C27.1109 150.25 25.1609 151.06 23.1609 151.06Z" fill="#F7E8D0"/>
<path d="M81.0908 32.24C81.0908 32.24 82.7408 61.77 106.521 61.77C108.981 59.3 105.301 32.24 81.0908 32.24Z" fill="url(#paint2_linear)"/>
<path d="M59.0412 164.34C59.0412 164.34 79.4212 160.65 100.581 164.34C101.671 146.6 114.761 145.38 112.011 121.16C112.011 121.16 105.031 119.95 108.491 104.61H106.501L104.001 117.4C104.001 117.4 101.561 133.93 81.0712 135.05C47.7012 135.05 58.2812 104.61 58.2812 104.61H56.1112C56.1112 104.61 52.9012 115.28 51.3612 123.85C50.6812 127.64 50.3312 131.03 50.7212 132.89C51.8012 141.13 59.1212 147.88 59.0312 153.72C58.9512 159.57 59.0412 164.34 59.0412 164.34Z" fill="url(#paint3_linear)"/>
<path d="M125.601 213.22C121.811 213.22 118.581 210.32 118.251 206.47L114.031 157.4L102.861 115.49C101.811 111.55 104.151 107.5 108.101 106.45C112.041 105.4 116.091 107.74 117.141 111.69L128.471 154.22C128.581 154.64 128.651 155.06 128.691 155.49L132.971 205.2C133.321 209.27 130.311 212.84 126.241 213.19C126.031 213.21 125.811 213.22 125.601 213.22Z" fill="#F7E8D0"/>
<path d="M103.401 119.74L106.321 105.61H108.291L105.371 123.85L109.631 141.42L95.3408 163.57L103.401 119.74Z" fill="url(#paint4_linear)"/>
</g>
<path d="M31.58 106H1.42003C0.635938 106 0 105.364 0 104.58V85.42C0 84.6359 0.635938 84 1.42003 84H31.58C32.3641 84 33 84.6359 33 85.42V104.58C33 105.364 32.3641 106 31.58 106Z" fill="url(#paint5_linear)"/>
<path d="M11.7957 89.1857H2.91186C2.67055 89.1857 2.47461 89.3813 2.47461 89.6229V100.908C2.47461 101.15 2.6702 101.345 2.91186 101.345H11.7961C12.0374 101.345 12.2333 101.15 12.2333 100.908V89.6229C12.233 89.3816 12.0374 89.1857 11.7957 89.1857Z" fill="url(#paint6_linear)"/>
<mask id="mask1" mask-type="alpha" maskUnits="userSpaceOnUse" x="2" y="89" width="11" height="13">
<path d="M11.7957 89.1857H2.91186C2.67055 89.1857 2.47461 89.3813 2.47461 89.6229V100.908C2.47461 101.15 2.6702 101.345 2.91186 101.345H11.7961C12.0374 101.345 12.2333 101.15 12.2333 100.908V89.6229C12.233 89.3816 12.0374 89.1857 11.7957 89.1857Z" fill="url(#paint7_linear)"/>
</mask>
<g mask="url(#mask1)">
<path d="M12.169 96.9495C12.1855 96.787 12.1937 96.6213 12.1937 96.4536C12.1937 95.0883 11.6299 93.8547 10.7235 92.9719C10.8222 92.6941 10.8788 92.3958 10.8788 92.084C10.8788 90.6138 9.68637 89.4213 8.21613 89.4213C7.27163 89.4213 6.44443 89.9152 5.97321 90.658C4.58116 90.7455 3.47925 91.8978 3.47925 93.3115C3.47925 93.3701 3.48439 93.4277 3.48851 93.4864C2.8537 94.3074 2.47302 95.3352 2.47302 96.4536C2.47302 96.6213 2.48125 96.7859 2.49771 96.9495C1.67256 97.9969 1.17871 99.318 1.17871 100.754C1.17871 104.154 3.934 106.909 7.33336 106.909C10.7327 106.909 13.488 104.154 13.488 100.754C13.488 99.318 12.9942 97.9969 12.169 96.9495Z" fill="url(#paint8_linear)"/>
<path opacity="0.05" d="M7.04333 91.0253C7.04333 91.0253 3.91868 91.231 4.37755 94.8516C4.37755 94.8516 4.11519 96.5297 5.51341 97.4567C5.51341 97.4567 6.13176 98.1923 4.46912 98.2664C4.36521 98.2705 2.49782 96.9505 2.49782 96.9505L1.52246 98.7212C1.52246 98.7212 2.52046 99.4444 2.54206 99.5123C3.08942 101.277 4.07404 103.286 4.07404 103.286L5.28501 106.58L8.99714 106.686C8.99714 106.686 11.737 98.8981 11.237 98.5596C10.7369 98.2211 8.85619 98.2952 8.85619 98.2952C8.85619 98.2952 8.39217 97.932 8.67408 97.5987C8.95599 97.2653 10.4262 96.5431 9.94884 94.3361C9.47145 92.1292 7.86745 91.0993 7.04333 91.0253Z" fill="black"/>
<path d="M2.69471 109.918C2.67311 109.918 2.65047 109.917 2.62887 109.915C2.21012 109.879 1.90043 109.511 1.93644 109.093L2.37679 103.979C2.38091 103.935 2.38811 103.891 2.39943 103.848L3.56513 99.4723C3.67316 99.067 4.08985 98.8252 4.49522 98.9332C4.90059 99.0413 5.14237 99.4579 5.03434 99.8633L3.88613 104.175L3.45195 109.224C3.41697 109.619 3.08568 109.918 2.69471 109.918Z" fill="#F7E8D0"/>
<path d="M8.15477 98.7429H6.37793L6.69379 95.788H7.83891L8.15477 98.7429Z" fill="url(#paint9_linear)"/>
<path d="M7.33319 97.3734C5.88867 97.3734 4.7168 96.2015 4.7168 94.757V93.9143C4.7168 92.4698 5.88867 91.2979 7.33319 91.2979C8.77771 91.2979 9.94959 92.4698 9.94959 93.9143V94.757C9.94959 96.2025 8.77874 97.3734 7.33319 97.3734Z" fill="#F7E8D0"/>
<path d="M8.51189 108.85H6.02102L4.37793 98.7429H10.155L8.51189 108.85Z" fill="#F7E8D0"/>
<path d="M4.37736 100.373C4.82739 100.373 5.19222 100.008 5.19222 99.5577C5.19222 99.1077 4.82739 98.7429 4.37736 98.7429C3.92732 98.7429 3.5625 99.1077 3.5625 99.5577C3.5625 100.008 3.92732 100.373 4.37736 100.373Z" fill="#F7E8D0"/>
<path d="M10.1547 100.373C10.6047 100.373 10.9696 100.008 10.9696 99.5577C10.9696 99.1077 10.6047 98.7429 10.1547 98.7429C9.70467 98.7429 9.33984 99.1077 9.33984 99.5577C9.33984 100.008 9.70467 100.373 10.1547 100.373Z" fill="#F7E8D0"/>
<path d="M5.78107 102.94C6.63852 102.94 7.33362 102.244 7.33362 101.387C7.33362 100.53 6.63852 99.8344 5.78107 99.8344C4.92362 99.8344 4.22852 100.53 4.22852 101.387C4.22852 102.244 4.92362 102.94 5.78107 102.94Z" fill="#F7E8D0"/>
<path d="M8.88556 102.94C9.74301 102.94 10.4381 102.244 10.4381 101.387C10.4381 100.53 9.74301 99.8344 8.88556 99.8344C8.02811 99.8344 7.33301 100.53 7.33301 101.387C7.33301 102.244 8.02811 102.94 8.88556 102.94Z" fill="#F7E8D0"/>
<path d="M7.33426 100.812C7.33014 101.066 7.35072 101.315 7.39908 101.555C7.45052 101.793 7.52974 102.026 7.66349 102.222C7.7921 102.422 7.97421 102.581 8.18615 102.698C8.40016 102.812 8.63885 102.885 8.88681 102.938C8.63371 102.955 8.37238 102.917 8.12854 102.816C8.00713 102.765 7.89293 102.696 7.78901 102.612C7.68716 102.526 7.59765 102.425 7.52254 102.315C7.37541 102.092 7.29619 101.832 7.26944 101.574C7.24269 101.317 7.26121 101.057 7.33426 100.812Z" fill="#FFDBB9"/>
<path d="M7.29083 100.812C7.36388 101.056 7.3824 101.317 7.35565 101.575C7.3289 101.832 7.24968 102.092 7.10255 102.316C7.02745 102.426 6.93794 102.527 6.83608 102.613C6.73216 102.697 6.61693 102.766 6.49655 102.817C6.25271 102.918 5.99241 102.955 5.73828 102.94C5.98624 102.885 6.22596 102.812 6.43894 102.699C6.65088 102.583 6.83299 102.423 6.9616 102.223C7.09535 102.027 7.17457 101.794 7.22602 101.556C7.27437 101.315 7.29495 101.066 7.29083 100.812Z" fill="#FFDBB9"/>
<path d="M10.41 100.812C10.483 101.056 10.5015 101.317 10.4748 101.575C10.448 101.832 10.3688 102.092 10.2217 102.316C10.1466 102.426 10.0571 102.527 9.95522 102.613C9.8513 102.697 9.73607 102.766 9.61569 102.817C9.37185 102.918 9.11155 102.955 8.85742 102.94C9.10538 102.885 9.3451 102.812 9.55808 102.699C9.77002 102.583 9.95213 102.423 10.0807 102.223C10.2145 102.027 10.2937 101.794 10.3452 101.556C10.3945 101.315 10.4141 101.066 10.41 100.812Z" fill="#FFDBB9"/>
<path d="M4.37759 100.723C4.3601 100.98 4.36421 101.233 4.39508 101.48C4.428 101.726 4.49179 101.966 4.60908 102.176C4.72123 102.389 4.89613 102.561 5.10396 102.688C5.31591 102.809 5.55769 102.885 5.80873 102.94C5.55152 102.955 5.2871 102.914 5.04223 102.804C4.92083 102.747 4.80868 102.67 4.70785 102.578C4.60805 102.486 4.52677 102.375 4.4599 102.257C4.33026 102.019 4.27059 101.752 4.26339 101.49C4.25721 101.229 4.29219 100.966 4.37759 100.723Z" fill="#FFDBB9"/>
<path d="M6.99707 91.3195C6.99707 91.3195 7.03411 94.5851 9.9499 94.7569C9.9499 94.7569 10.0795 93.2404 9.57539 93.2188C9.07125 93.1972 7.33351 91.2979 7.33351 91.2979L6.99707 91.3195Z" fill="#FFDBB9"/>
<path d="M7.33398 91.2979C7.33398 91.2979 7.50375 94.3361 9.95038 94.3361C10.2045 94.082 9.82486 91.2979 7.33398 91.2979Z" fill="url(#paint10_linear)"/>
<path d="M5.06513 104.889C5.06513 104.889 7.16195 104.51 9.33902 104.889C9.45117 103.064 10.7979 102.939 10.515 100.447C10.515 100.447 9.79686 100.322 10.1529 98.7439H9.94811L9.69089 100.06C9.69089 100.06 9.43985 101.761 7.33171 101.876C3.8984 101.876 4.98693 98.7439 4.98693 98.7439H4.76367C4.76367 98.7439 4.43341 99.8417 4.27496 100.723C4.205 101.113 4.16899 101.462 4.20911 101.654C4.32023 102.501 5.07336 103.196 5.0641 103.797C5.05484 104.397 5.06513 104.889 5.06513 104.889Z" fill="url(#paint11_linear)"/>
<path d="M11.9133 109.918C11.5234 109.918 11.191 109.62 11.1571 109.224L10.7229 104.175L9.57367 99.8633C9.46564 99.4579 9.7064 99.0412 10.1128 98.9332C10.5182 98.8251 10.9349 99.0659 11.0429 99.4723L12.2086 103.848C12.2199 103.891 12.2271 103.934 12.2312 103.979L12.6716 109.093C12.7076 109.512 12.3979 109.879 11.9792 109.915C11.9565 109.917 11.9349 109.918 11.9133 109.918Z" fill="#F7E8D0"/>
<path d="M9.62912 100.3L9.92955 98.8467H10.1312L9.83181 100.723L10.2691 102.531L8.79883 104.81L9.62912 100.3Z" fill="url(#paint12_linear)"/>
</g>
<path d="M29.8977 91.3047H15.4773C14.9029 91.3047 14.4375 90.8393 14.4375 90.2649C14.4375 89.6905 14.9029 89.225 15.4773 89.225H29.8977C30.4721 89.225 30.9375 89.6905 30.9375 90.2649C30.9375 90.8393 30.4721 91.3047 29.8977 91.3047Z" fill="#02CBA9" fill-opacity="0.6"/>
<path d="M29.8977 94.6648H15.4773C14.9029 94.6648 14.4375 94.1994 14.4375 93.625C14.4375 93.0506 14.9029 92.5851 15.4773 92.5851H29.8977C30.4721 92.5851 30.9375 93.0506 30.9375 93.625C30.9375 94.1994 30.4721 94.6648 29.8977 94.6648Z" fill="#02CBA9" fill-opacity="0.6"/>
<path d="M29.8977 101.385H15.4773C14.9029 101.385 14.4375 100.92 14.4375 100.345C14.4375 99.7709 14.9029 99.3055 15.4773 99.3055H29.8977C30.4721 99.3055 30.9375 99.7709 30.9375 100.345C30.9375 100.919 30.4721 101.385 29.8977 101.385Z" fill="#02CBA9" fill-opacity="0.6"/>
<path d="M21.0977 98.0251H15.4773C14.9029 98.0251 14.4375 97.5596 14.4375 96.9852C14.4375 96.4108 14.9029 95.9454 15.4773 95.9454H21.0977C21.6721 95.9454 22.1375 96.4108 22.1375 96.9852C22.1375 97.5593 21.6721 98.0251 21.0977 98.0251Z" fill="#02CBA9" fill-opacity="0.6"/>
<path d="M29.8682 98.0251H24.2479C23.6734 98.0251 23.208 97.5596 23.208 96.9852C23.208 96.4108 23.6734 95.9454 24.2479 95.9454H29.8682C30.4426 95.9454 30.908 96.4108 30.908 96.9852C30.9077 97.5593 30.4422 98.0251 29.8682 98.0251Z" fill="#02CBA9" fill-opacity="0.6"/>
<defs>
<linearGradient id="paint0_linear" x1="81.0868" y1="183.976" x2="81.0868" y2="14" gradientUnits="userSpaceOnUse">
<stop offset="0.00117844" stop-color="#5721F6"/>
<stop offset="1" stop-color="#6D47F6"/>
</linearGradient>
<linearGradient id="paint1_linear" x1="80.4318" y1="104.605" x2="80.4318" y2="75.8787" gradientUnits="userSpaceOnUse">
<stop stop-color="#F7E8D0"/>
<stop offset="0.9635" stop-color="#F7C8D0"/>
<stop offset="0.9988" stop-color="#F7C7D0"/>
</linearGradient>
<linearGradient id="paint2_linear" x1="94.1287" y1="61.7686" x2="94.1287" y2="32.243" gradientUnits="userSpaceOnUse">
<stop offset="0.00117844" stop-color="#5721F6"/>
<stop offset="1" stop-color="#6D47F6"/>
</linearGradient>
<linearGradient id="paint3_linear" x1="81.4842" y1="164.343" x2="81.4842" y2="104.605" gradientUnits="userSpaceOnUse">
<stop stop-color="#1A1A1A"/>
<stop offset="1" stop-color="#565656"/>
</linearGradient>
<linearGradient id="paint4_linear" x1="102.483" y1="163.572" x2="102.483" y2="105.607" gradientUnits="userSpaceOnUse">
<stop stop-color="#1A1A1A"/>
<stop offset="1" stop-color="#565656"/>
</linearGradient>
<linearGradient id="paint5_linear" x1="16.5" y1="84" x2="16.5" y2="106" gradientUnits="userSpaceOnUse">
<stop stop-color="#BAFCF1"/>
<stop offset="1" stop-color="#80E0D0"/>
</linearGradient>
<linearGradient id="paint6_linear" x1="7.35397" y1="89.1857" x2="7.35397" y2="101.345" gradientUnits="userSpaceOnUse">
<stop stop-color="#F2F2F2"/>
<stop offset="1" stop-color="white"/>
</linearGradient>
<linearGradient id="paint7_linear" x1="7.35397" y1="89.1857" x2="7.35397" y2="101.345" gradientUnits="userSpaceOnUse">
<stop stop-color="#F2F2F2"/>
<stop offset="1" stop-color="white"/>
</linearGradient>
<linearGradient id="paint8_linear" x1="7.3335" y1="106.909" x2="7.3335" y2="89.4213" gradientUnits="userSpaceOnUse">
<stop offset="0.00117844" stop-color="#5721F6"/>
<stop offset="1" stop-color="#6D47F6"/>
</linearGradient>
<linearGradient id="paint9_linear" x1="7.26643" y1="98.7433" x2="7.26643" y2="95.7878" gradientUnits="userSpaceOnUse">
<stop stop-color="#F7E8D0"/>
<stop offset="0.9635" stop-color="#F7C8D0"/>
<stop offset="0.9988" stop-color="#F7C7D0"/>
</linearGradient>
<linearGradient id="paint10_linear" x1="8.67592" y1="94.336" x2="8.67592" y2="91.2982" gradientUnits="userSpaceOnUse">
<stop offset="0.00117844" stop-color="#5721F6"/>
<stop offset="1" stop-color="#6D47F6"/>
</linearGradient>
<linearGradient id="paint11_linear" x1="7.37369" y1="104.89" x2="7.37369" y2="98.7434" gradientUnits="userSpaceOnUse">
<stop stop-color="#1A1A1A"/>
<stop offset="1" stop-color="#565656"/>
</linearGradient>
<linearGradient id="paint12_linear" x1="9.53422" y1="104.81" x2="9.53422" y2="98.8464" gradientUnits="userSpaceOnUse">
<stop stop-color="#1A1A1A"/>
<stop offset="1" stop-color="#565656"/>
</linearGradient>
</defs>
</svg>
