<svg width="140" height="94" viewBox="0 0 140 94" fill="none" xmlns="http://www.w3.org/2000/svg">
<g clip-path="url(#clip0)">
<path d="M133.976 93.3333H6.02437C2.69792 93.3333 0 90.6354 0 87.309V6.02437C0 2.69792 2.69792 0 6.02437 0H133.976C137.302 0 140 2.69792 140 6.02437V87.309C140 90.6354 137.302 93.3333 133.976 93.3333Z" fill="url(#paint0_linear)"/>
<path d="M50.0412 22H12.3521C11.3283 22 10.4971 22.8298 10.4971 23.855V71.7321C10.4971 72.7558 11.3269 73.5871 12.3521 73.5871H50.0427C51.0664 73.5871 51.8977 72.7573 51.8977 71.7321V23.855C51.8962 22.8313 51.0664 22 50.0412 22Z" fill="url(#paint1_linear)"/>
<mask id="mask0" mask-type="alpha" maskUnits="userSpaceOnUse" x="10" y="22" width="42" height="52">
<path d="M50.0412 22H12.3521C11.3283 22 10.4971 22.8298 10.4971 23.855V71.7321C10.4971 72.7558 11.3269 73.5871 12.3521 73.5871H50.0427C51.0664 73.5871 51.8977 72.7573 51.8977 71.7321V23.855C51.8962 22.8313 51.0664 22 50.0412 22Z" fill="url(#paint2_linear)"/>
</mask>
<g mask="url(#mask0)">
<path d="M51.6255 54.9377C51.6954 54.2481 51.7303 53.5453 51.7303 52.8339C51.7303 47.0417 49.3383 41.8082 45.4929 38.0632C45.9119 36.8846 46.152 35.6188 46.152 34.2963C46.152 28.0589 41.0931 23 34.8557 23C30.8487 23 27.3394 25.0951 25.3403 28.2466C19.4346 28.6176 14.7598 33.5062 14.7598 39.5036C14.7598 39.7524 14.7817 39.9968 14.7991 40.2456C12.106 43.7288 10.491 48.0893 10.491 52.8339C10.491 53.5453 10.5259 54.2437 10.5958 54.9377C7.09514 59.3812 5 64.9857 5 71.079C5 85.5005 16.6891 97.1897 31.1106 97.1897C45.5322 97.1897 57.2213 85.5005 57.2213 71.079C57.2213 64.9857 55.1261 59.3812 51.6255 54.9377Z" fill="url(#paint3_linear)"/>
<path opacity="0.05" d="M29.8843 29.8048C29.8843 29.8048 16.6282 30.6778 18.5749 46.0378C18.5749 46.0378 17.4619 53.1569 23.3937 57.0896C23.3937 57.0896 26.017 60.2105 18.9634 60.5247C18.5225 60.5422 10.6003 54.9421 10.6003 54.9421L6.4624 62.454C6.4624 62.454 10.6963 65.5225 10.788 65.8106C13.1101 73.2964 17.2873 81.8209 17.2873 81.8209L22.4247 95.7929L38.1732 96.2425C38.1732 96.2425 49.7968 63.2048 47.6755 61.7687C45.5541 60.3327 37.5752 60.647 37.5752 60.647C37.5752 60.647 35.6066 59.1062 36.8026 57.6919C37.9986 56.2777 44.236 53.2136 42.2107 43.851C40.1854 34.4883 33.3805 30.1191 29.8843 29.8048Z" fill="black"/>
<path d="M11.4341 109.957C11.3424 109.957 11.2464 109.952 11.1547 109.944C9.37821 109.791 8.06439 108.228 8.21716 106.456L10.0853 84.7585C10.1028 84.5708 10.1333 84.3874 10.1813 84.2041L15.1267 65.6403C15.5851 63.9206 17.3528 62.8948 19.0726 63.3532C20.7923 63.8115 21.8181 65.5792 21.3598 67.299L16.4886 85.5921L14.6466 107.011C14.4982 108.687 13.0927 109.957 11.4341 109.957Z" fill="#F7E8D0"/>
<path d="M34.5938 62.5457H27.0557L28.3957 50.0098H33.2538L34.5938 62.5457Z" fill="url(#paint4_linear)"/>
<path d="M31.1106 56.7361C24.9823 56.7361 20.0107 51.7645 20.0107 45.6362V42.0614C20.0107 35.9331 24.9823 30.9615 31.1106 30.9615C37.2389 30.9615 42.2105 35.9331 42.2105 42.0614V45.6362C42.2105 51.7689 37.2432 56.7361 31.1106 56.7361Z" fill="#F7E8D0"/>
<path d="M36.1084 105.426H25.541L18.5703 62.5457H43.079L36.1084 105.426Z" fill="#F7E8D0"/>
<path d="M18.5703 69.4597C20.4795 69.4597 22.0272 67.9119 22.0272 66.0027C22.0272 64.0935 20.4795 62.5457 18.5703 62.5457C16.661 62.5457 15.1133 64.0935 15.1133 66.0027C15.1133 67.9119 16.661 69.4597 18.5703 69.4597Z" fill="#F7E8D0"/>
<path d="M43.079 69.4597C44.9883 69.4597 46.536 67.9119 46.536 66.0027C46.536 64.0935 44.9883 62.5457 43.079 62.5457C41.1698 62.5457 39.6221 64.0935 39.6221 66.0027C39.6221 67.9119 41.1698 69.4597 43.079 69.4597Z" fill="#F7E8D0"/>
<path d="M24.5241 80.35C28.1618 80.35 31.1107 77.4011 31.1107 73.7634C31.1107 70.1257 28.1618 67.1768 24.5241 67.1768C20.8864 67.1768 17.9375 70.1257 17.9375 73.7634C17.9375 77.4011 20.8864 80.35 24.5241 80.35Z" fill="#F7E8D0"/>
<path d="M37.6974 80.35C41.3351 80.35 44.284 77.4011 44.284 73.7634C44.284 70.1257 41.3351 67.1768 37.6974 67.1768C34.0598 67.1768 31.1108 70.1257 31.1108 73.7634C31.1108 77.4011 34.0598 80.35 37.6974 80.35Z" fill="#F7E8D0"/>
<path d="M31.1104 71.3234C31.093 72.4015 31.1803 73.4578 31.3854 74.4749C31.6037 75.4875 31.9398 76.474 32.5072 77.3077C33.0528 78.1544 33.8254 78.831 34.7246 79.3242C35.6324 79.8087 36.6451 80.1186 37.697 80.3456C36.6233 80.4154 35.5146 80.2539 34.4801 79.8262C33.9651 79.6079 33.4806 79.3155 33.0397 78.9619C32.6076 78.5953 32.2279 78.1675 31.9092 77.7005C31.285 76.7533 30.9489 75.6534 30.8355 74.5578C30.722 73.4666 30.8005 72.3623 31.1104 71.3234Z" fill="#FFDBB9"/>
<path d="M30.9318 71.3234C31.2417 72.3579 31.3203 73.4666 31.2068 74.5622C31.0933 75.6534 30.7572 76.7533 30.133 77.7049C29.8144 78.1719 29.4347 78.5997 29.0025 78.9663C28.5617 79.3199 28.0728 79.6123 27.5621 79.8306C26.5276 80.2583 25.4233 80.4155 24.3452 80.35C25.3971 80.1186 26.4142 79.8087 27.3177 79.3286C28.2169 78.8354 28.9894 78.1588 29.535 77.312C30.1025 76.4783 30.4386 75.4919 30.6568 74.4792C30.862 73.4578 30.9493 72.4015 30.9318 71.3234Z" fill="#FFDBB9"/>
<path d="M44.1618 71.3234C44.4717 72.3579 44.5503 73.4666 44.4368 74.5622C44.3233 75.6534 43.9872 76.7533 43.363 77.7049C43.0444 78.1719 42.6646 78.5997 42.2325 78.9663C41.7917 79.3199 41.3028 79.6123 40.7921 79.8306C39.7576 80.2583 38.6533 80.4155 37.5752 80.35C38.6271 80.1186 39.6441 79.8087 40.5477 79.3286C41.4468 78.8354 42.2194 78.1588 42.765 77.312C43.3325 76.4783 43.6686 75.4919 43.8868 74.4792C44.0963 73.4578 44.1792 72.4015 44.1618 71.3234Z" fill="#FFDBB9"/>
<path d="M18.5704 70.9481C18.4962 72.0349 18.5137 73.1087 18.6446 74.1562C18.7843 75.1994 19.0549 76.2208 19.5525 77.1112C20.0283 78.0148 20.7703 78.7437 21.652 79.2806C22.5512 79.7956 23.5769 80.1186 24.642 80.35C23.5508 80.4155 22.429 80.2409 21.3901 79.7738C20.8751 79.5338 20.3993 79.2064 19.9716 78.8179C19.5482 78.4251 19.2033 77.9537 18.9196 77.4561C18.3697 76.4434 18.1165 75.3129 18.0859 74.1999C18.0597 73.0912 18.2082 71.9782 18.5704 70.9481Z" fill="#FFDBB9"/>
<path d="M29.6831 31.0532C29.6831 31.0532 29.8402 44.9073 42.2103 45.6362C42.2103 45.6362 42.7602 39.2024 40.6215 39.1108C38.4827 39.0191 31.1104 30.9615 31.1104 30.9615L29.6831 31.0532Z" fill="#FFDBB9"/>
<path d="M31.1104 30.9615C31.1104 30.9615 31.8306 43.851 42.2102 43.851C43.2883 42.7729 41.6777 30.9615 31.1104 30.9615Z" fill="url(#paint5_linear)"/>
<path d="M21.4906 88.6214C21.4906 88.6214 30.3862 87.0108 39.6223 88.6214C40.0981 80.8781 45.8117 80.3456 44.6113 69.7739C44.6113 69.7739 41.5647 69.2458 43.0749 62.55H42.2063L41.1151 68.1327C41.1151 68.1327 40.0501 75.3478 31.1064 75.8367C16.5409 75.8367 21.1589 62.55 21.1589 62.55H20.2117C20.2117 62.55 18.8106 67.2074 18.1384 70.9481C17.8416 72.6023 17.6888 74.082 17.8591 74.8939C18.3305 78.4905 21.5256 81.4368 21.4863 83.9859C21.447 86.535 21.4906 88.6214 21.4906 88.6214Z" fill="url(#paint6_linear)"/>
<path d="M50.5431 109.957C48.8888 109.957 47.4789 108.691 47.3349 107.011L45.4929 85.5922L40.6174 67.299C40.159 65.5793 41.1804 63.8115 42.9045 63.3532C44.6243 62.8949 46.3921 63.9163 46.8504 65.6404L51.7958 84.2042C51.8438 84.3875 51.8744 84.5708 51.8918 84.7585L53.76 106.456C53.9127 108.233 52.5989 109.791 50.8224 109.944C50.7264 109.953 50.6347 109.957 50.5431 109.957Z" fill="#F7E8D0"/>
<path d="M40.853 69.1541L42.1276 62.9866H42.9831L41.7129 70.9481L43.568 78.6172L37.3306 88.2853L40.853 69.1541Z" fill="url(#paint7_linear)"/>
</g>
<path d="M126.839 30.9895H65.6615C63.2246 30.9895 61.25 29.015 61.25 26.5781C61.25 24.1412 63.2246 22.1666 65.6615 22.1666H126.839C129.275 22.1666 131.25 24.1412 131.25 26.5781C131.25 29.015 129.275 30.9895 126.839 30.9895Z" fill="#02CBA9" fill-opacity="0.6"/>
<path d="M126.839 45.2448H65.6615C63.2246 45.2448 61.25 43.2702 61.25 40.8333C61.25 38.3965 63.2246 36.4219 65.6615 36.4219H126.839C129.275 36.4219 131.25 38.3965 131.25 40.8333C131.25 43.2702 129.275 45.2448 126.839 45.2448Z" fill="#02CBA9" fill-opacity="0.6"/>
<path d="M126.839 73.7552H65.6615C63.2246 73.7552 61.25 71.7806 61.25 69.3437C61.25 66.9068 63.2246 64.9323 65.6615 64.9323H126.839C129.275 64.9323 131.25 66.9068 131.25 69.3437C131.25 71.7791 129.275 73.7552 126.839 73.7552Z" fill="#02CBA9" fill-opacity="0.6"/>
<path d="M89.5052 59.4999H65.6615C63.2246 59.4999 61.25 57.5253 61.25 55.0885C61.25 52.6516 63.2246 50.677 65.6615 50.677H89.5052C91.9421 50.677 93.9167 52.6516 93.9167 55.0885C93.9167 57.5239 91.9421 59.4999 89.5052 59.4999Z" fill="#02CBA9" fill-opacity="0.6"/>
<path d="M126.713 59.4999H102.869C100.432 59.4999 98.4575 57.5253 98.4575 55.0885C98.4575 52.6516 100.432 50.677 102.869 50.677H126.713C129.15 50.677 131.124 52.6516 131.124 55.0885C131.123 57.5239 129.148 59.4999 126.713 59.4999Z" fill="#02CBA9" fill-opacity="0.6"/>
</g>
<defs>
<linearGradient id="paint0_linear" x1="70" y1="0" x2="70" y2="93.3333" gradientUnits="userSpaceOnUse">
<stop stop-color="#BAFCF1"/>
<stop offset="1" stop-color="#80E0D0"/>
</linearGradient>
<linearGradient id="paint1_linear" x1="31.1974" y1="22" x2="31.1974" y2="73.5871" gradientUnits="userSpaceOnUse">
<stop stop-color="#F2F2F2"/>
<stop offset="1" stop-color="white"/>
</linearGradient>
<linearGradient id="paint2_linear" x1="31.1974" y1="22" x2="31.1974" y2="73.5871" gradientUnits="userSpaceOnUse">
<stop stop-color="#F2F2F2"/>
<stop offset="1" stop-color="white"/>
</linearGradient>
<linearGradient id="paint3_linear" x1="31.1112" y1="97.1921" x2="31.1112" y2="23" gradientUnits="userSpaceOnUse">
<stop offset="0.00117844" stop-color="#5721F6"/>
<stop offset="1" stop-color="#6D47F6"/>
</linearGradient>
<linearGradient id="paint4_linear" x1="30.8251" y1="62.5478" x2="30.8251" y2="50.0092" gradientUnits="userSpaceOnUse">
<stop stop-color="#F7E8D0"/>
<stop offset="0.9635" stop-color="#F7C8D0"/>
<stop offset="0.9988" stop-color="#F7C7D0"/>
</linearGradient>
<linearGradient id="paint5_linear" x1="36.8034" y1="43.8504" x2="36.8034" y2="30.9629" gradientUnits="userSpaceOnUse">
<stop offset="0.00117844" stop-color="#5721F6"/>
<stop offset="1" stop-color="#6D47F6"/>
</linearGradient>
<linearGradient id="paint6_linear" x1="31.2845" y1="88.6228" x2="31.2845" y2="62.5478" gradientUnits="userSpaceOnUse">
<stop stop-color="#1A1A1A"/>
<stop offset="1" stop-color="#565656"/>
</linearGradient>
<linearGradient id="paint7_linear" x1="40.4504" y1="88.2862" x2="40.4504" y2="62.9853" gradientUnits="userSpaceOnUse">
<stop stop-color="#1A1A1A"/>
<stop offset="1" stop-color="#565656"/>
</linearGradient>
<clipPath id="clip0">
<rect width="140" height="93.3333" fill="white"/>
</clipPath>
</defs>
</svg>
