<svg width="18" height="18" viewBox="0 0 18 18" fill="none" xmlns="http://www.w3.org/2000/svg">
<g clip-path="url(#clip0)">
<path d="M8.99973 0C8.80623 0 8.61723 0.072 8.46873 0.2205L0.22023 8.469C-0.0722705 8.7615 -0.0722705 9.234 0.22023 9.5265L8.47323 17.7795C8.61723 17.928 8.81073 18 8.99973 18C9.19323 18 9.38223 17.928 9.53073 17.7795C9.82323 17.487 9.82323 17.0145 9.53073 16.722L2.53773 9.7245H17.2572C17.6667 9.7245 17.9952 9.396 17.9952 8.9865C17.9952 8.577 17.6667 8.2485 17.2572 8.2485H2.56023L9.53073 1.278C9.82323 0.9855 9.82323 0.513 9.53073 0.2205C9.38223 0.072 9.18873 0 8.99973 0Z" fill="#352F31"/>
</g>
<defs>
<clipPath id="clip0">
<rect width="17.9955" height="18" fill="white"/>
</clipPath>
</defs>
</svg>
