<svg width="24" height="24" viewBox="0 0 24 24" fill="none" xmlns="http://www.w3.org/2000/svg">
<g clip-path="url(#clip0)">
<path d="M20.0009 11.109C20.2124 10.9965 20.4239 10.884 20.6309 10.7625C20.9864 10.5555 21.1079 10.101 20.9054 9.74552C20.6984 9.39002 20.2439 9.26852 19.8884 9.47102C18.7139 10.1505 17.4584 10.6725 16.1534 11.028C14.8034 11.3925 13.4084 11.577 11.9999 11.577C10.5914 11.577 9.19639 11.3925 7.85089 11.028C6.54589 10.6725 5.29039 10.1505 4.11589 9.47102C3.76039 9.26402 3.30589 9.38552 3.09889 9.74552C2.89189 10.101 3.01339 10.5555 3.37339 10.7625C3.58039 10.884 3.79189 10.9965 4.00339 11.109L3.27439 11.8335C2.98189 12.126 2.98189 12.5985 3.27439 12.8865C3.56689 13.179 4.03939 13.179 4.32739 12.8865L5.43439 11.7795C6.09139 12.0495 6.77089 12.279 7.45489 12.468C7.85539 12.576 8.25589 12.6705 8.66089 12.747L8.31889 13.6065C8.16589 13.989 8.35489 14.421 8.73739 14.574C9.11989 14.727 9.55189 14.538 9.70489 14.1555L10.1819 12.972C10.7849 13.035 11.3924 13.0665 11.9999 13.0665C12.6074 13.0665 13.2149 13.035 13.8179 12.972L14.2859 14.1555C14.4389 14.538 14.8709 14.727 15.2534 14.574C15.6359 14.421 15.8249 13.989 15.6719 13.6065L15.3344 12.747C15.7394 12.666 16.1444 12.576 16.5404 12.468C17.2289 12.279 17.9039 12.0495 18.5609 11.7795L19.6679 12.8865C19.9604 13.179 20.4329 13.179 20.7209 12.8865C21.0134 12.594 21.0134 12.1215 20.7209 11.8335L20.0009 11.109Z" fill="#352F31"/>
</g>
<defs>
<clipPath id="clip0">
<rect width="18" height="5.256" fill="white" transform="translate(3 9.37201)"/>
</clipPath>
</defs>
</svg>
