<svg width="24" height="24" viewBox="0 0 24 24" fill="none" xmlns="http://www.w3.org/2000/svg">
<path d="M23.3585 4.373L12.1577 0.06675C12.0397 0.0215 11.9185 0 11.7992 0C11.3975 0 11.0185 0.244 10.8657 0.6415L9.57425 4H8.63475H1C0.44775 4 0 4.44775 0 5V23C0 23.5523 0.44775 24 1 24H13C13.5522 24 14 23.5523 14 23V22.6313V22.2023L16.1817 23.041C16.2997 23.0863 16.421 23.1078 16.5405 23.1078C16.9422 23.1078 17.3212 22.8638 17.474 22.4663L23.933 5.665C24.1312 5.14975 23.874 4.57125 23.3585 4.373ZM12 21.4333V22H2V6H8.63475H8.8055L4.4065 17.4425C4.20825 17.958 4.4655 18.5365 4.981 18.7348L12 21.4333ZM15.966 20.8152L6.632 17.227L12.3735 2.2925L21.7075 5.881L15.966 20.8152Z" fill="black"/>
</svg>
