<svg width="24" height="24" viewBox="0 0 24 24" fill="none" xmlns="http://www.w3.org/2000/svg">
<path d="M12 0C5.3725 0 0 5.3725 0 12C0 18.6275 5.3725 24 12 24C18.6275 24 24 18.6275 24 12C24 5.3725 18.6275 0 12 0ZM19.071 19.071C18.152 19.99 17.0822 20.7112 15.8917 21.215C14.6602 21.7357 13.3508 22 12 22C10.6493 22 9.33975 21.7357 8.10825 21.215C6.91775 20.7115 5.848 19.9903 4.929 19.071C4.01 18.152 3.28875 17.0822 2.785 15.8917C2.26425 14.6602 2 13.3508 2 12C2 10.649 2.26425 9.33975 2.785 8.10825C3.2885 6.91775 4.00975 5.848 4.929 4.929C5.848 4.01 6.91775 3.28875 8.10825 2.785C9.33975 2.26425 10.6493 2 12 2C13.3508 2 14.6602 2.26425 15.8917 2.785C17.0822 3.2885 18.152 4.00975 19.071 4.929C19.99 5.848 20.7112 6.91775 21.215 8.10825C21.7357 9.33975 22 10.649 22 12C22 13.3508 21.7357 14.6602 21.215 15.8917C20.7115 17.0825 19.99 18.152 19.071 19.071Z" fill="black"/>
<path d="M12 4.60001C9.51875 4.60001 7.5 6.61876 7.5 9.10001C7.5 9.59701 7.903 10 8.4 10C8.897 10 9.3 9.59701 9.3 9.10001C9.3 7.61126 10.5113 6.40001 12 6.40001C13.4888 6.40001 14.7 7.61126 14.7 9.10001C14.7 10.5888 13.4888 11.8 12 11.8C11.503 11.8 11.1 12.203 11.1 12.7V14.5C11.1 14.997 11.503 15.4 12 15.4C12.497 15.4 12.9 14.997 12.9 14.5V13.5095C14.9515 13.0913 16.5 11.273 16.5 9.10001C16.5 6.61876 14.4813 4.60001 12 4.60001Z" fill="black"/>
<path d="M12 16.5C11.4478 16.5 11 16.9478 11 17.5C11 18.0523 11.4478 18.5 12 18.5C12.5523 18.5 13 18.0523 13 17.5C13 16.9478 12.5523 16.5 12 16.5Z" fill="black"/>
</svg>
