<svg width="24" height="26" viewBox="0 0 24 26" fill="none" xmlns="http://www.w3.org/2000/svg">
<g clip-path="url(#clip0_887_1033)">
<path d="M12.003 3.13354L19.4389 7.23857L20.003 7.53864V9.00301C20.003 9.00901 20.003 9.01501 20.003 9.02101V23.0045H4.003V9.00301V7.50264L12.003 3.13354ZM12.003 0.997009C11.835 0.997009 11.6669 1.03902 11.5109 1.12304L0.534133 7.11254C0.52213 7.11854 0.516129 7.12454 0.504126 7.13054L0.498124 7.13654C0.204051 7.31059 0 7.62867 0 8.00076C0 8.5529 0.450112 9.00301 1.00225 9.00301H2.0045V24.0128C2.0045 24.5589 2.44861 25.003 2.99475 25.003H21.0113C21.5574 25.003 22.0015 24.5589 22.0015 24.0128V9.00901C22.0015 9.00901 22.0015 9.00901 22.0015 9.00301H23.0038C23.5559 9.00301 24.006 8.5529 24.006 8.00076C24.006 7.61666 23.7899 7.28658 23.4779 7.11854L12.4951 1.12304C12.3391 1.03902 12.171 0.997009 12.003 0.997009Z" fill="#352F31"/>
</g>
<defs>
<clipPath id="clip0_887_1033">
<rect width="24" height="24.006" fill="white" transform="translate(0 0.997009)"/>
</clipPath>
</defs>
</svg>
