<svg width="18" height="18" viewBox="0 0 18 18" fill="none" xmlns="http://www.w3.org/2000/svg">
<g clip-path="url(#clip0)">
<path d="M8.99777 6.75689C9.60962 6.75689 10.185 6.99112 10.6176 7.41662C11.0504 7.84211 11.2886 8.40762 11.2886 9.00916C11.2886 9.61071 11.0504 10.1764 10.6176 10.6017C10.185 11.0272 9.60962 11.2614 8.99777 11.2614C8.38592 11.2614 7.81054 11.0272 7.37795 10.6017C6.94517 10.1764 6.70692 9.61071 6.70692 9.00916C6.70692 8.40762 6.94517 7.84192 7.37795 7.41662C7.81054 6.99112 8.38573 6.75689 8.99777 6.75689ZM8.99777 5.25537C6.88904 5.25537 5.17969 6.93594 5.17969 9.00916C5.17969 11.0824 6.88904 12.763 8.99777 12.763C11.1065 12.763 12.8159 11.0824 12.8159 9.00916C12.8159 6.93594 11.1063 5.25537 8.99777 5.25537Z" fill="#352F31"/>
<path d="M10.4942 1.50152V2.11301C10.4942 2.7123 10.8565 3.25416 11.4162 3.49159C11.812 3.65938 12.1909 3.86979 12.5426 4.1166C12.8071 4.30241 13.1181 4.39607 13.4301 4.39607C13.7029 4.39607 13.9762 4.32437 14.2198 4.17966L14.7524 3.86322L16.2997 6.38088L15.7732 6.69358C15.2513 7.00364 14.967 7.58904 15.0499 8.18289C15.0879 8.45486 15.1071 8.73282 15.1071 9.00891C15.1071 9.28031 15.0884 9.55359 15.0518 9.82142C14.9705 10.4141 15.2547 10.9981 15.7755 11.3074L16.2997 11.6187L14.7524 14.1364L14.2338 13.8282C13.9902 13.6835 13.7168 13.6118 13.444 13.6118C13.1311 13.6118 12.819 13.7062 12.5538 13.8932C12.1987 14.1435 11.816 14.3566 11.4162 14.5262C10.8567 14.7637 10.4942 15.3055 10.4942 15.9048V16.4981H7.50213V15.9048C7.50213 15.3055 7.1398 14.7637 6.58007 14.5262C6.18032 14.3566 5.79756 14.1437 5.44248 13.8932C5.17731 13.7062 4.86518 13.6118 4.55229 13.6118C4.27949 13.6118 4.00612 13.6835 3.76253 13.8282L3.24384 14.1364L1.69676 11.6189L2.22098 11.3076C2.74177 10.9982 3.02602 10.4145 2.9447 9.82161C2.90804 9.55378 2.88934 9.2805 2.88934 9.0091C2.88934 8.73301 2.90862 8.45504 2.94661 8.18308C3.02946 7.58923 2.7452 7.00383 2.22327 6.69376L1.69676 6.38107L3.24403 3.8634L3.77665 4.17985C4.02006 4.32456 4.29343 4.39625 4.56642 4.39625C4.87817 4.39625 5.18934 4.3026 5.45393 4.11678C5.80577 3.86997 6.18471 3.65957 6.58026 3.49178C7.1398 3.25435 7.50232 2.71249 7.50232 2.1132V1.50152H10.4942ZM10.947 0H7.04931C6.45598 0 5.97491 0.472978 5.97491 1.05632V2.11301C5.4755 2.32491 5.00378 2.58768 4.56642 2.89455L3.64627 2.34781C3.47254 2.24458 3.28088 2.19541 3.09169 2.19541C2.72783 2.19541 2.37294 2.37709 2.17116 2.70555L0.155409 5.98561C-0.151373 6.48486 0.0114678 7.13427 0.519271 7.43589L1.43332 7.97887C1.38635 8.31559 1.36192 8.65944 1.36192 9.00891C1.36192 9.35257 1.38559 9.69079 1.43102 10.0223L0.519271 10.5639C0.0114678 10.8655 -0.151564 11.5149 0.155409 12.0142L2.17097 15.2943C2.37275 15.6227 2.72783 15.8044 3.0915 15.8044C3.28069 15.8044 3.47235 15.7552 3.64608 15.652L4.55229 15.1137C4.99366 15.4249 5.47016 15.691 5.97491 15.9052V16.9437C5.97491 17.527 6.45598 18 7.04931 18H10.947C11.5403 18 12.0214 17.527 12.0214 16.9437V15.9052C12.5261 15.691 13.0026 15.4249 13.444 15.1137L14.3502 15.652C14.5239 15.7552 14.7156 15.8044 14.9048 15.8044C15.2687 15.8044 15.6235 15.6227 15.8253 15.2943L17.8409 12.0144C18.1477 11.5151 17.9848 10.8657 17.477 10.5641L16.5653 10.0224C16.6107 9.69098 16.6344 9.35276 16.6344 9.0091C16.6344 8.65963 16.6099 8.31578 16.563 7.97906L17.477 7.43608C17.9848 7.13446 18.1479 6.48505 17.8409 5.9858L15.8253 2.70573C15.6235 2.37728 15.2685 2.19559 14.9048 2.19559C14.7156 2.19559 14.5239 2.24477 14.3502 2.348L13.4301 2.89474C12.9927 2.58768 12.5208 2.3251 12.0216 2.1132V1.0565C12.0214 0.472978 11.5403 0 10.947 0Z" fill="#352F31"/>
</g>
<defs>
<clipPath id="clip0">
<rect width="17.9955" height="18" fill="white"/>
</clipPath>
</defs>
</svg>
