<svg width="239" height="244" viewBox="0 0 239 244" fill="none" xmlns="http://www.w3.org/2000/svg">
<path d="M17.6533 210H14.4307L8.15723 199.709V210H4.93457V194.359H8.15723L14.4414 204.672V194.359H17.6533V210ZM19.7803 204.081C19.7803 202.928 20.0023 201.9 20.4463 200.998C20.8903 200.096 21.5277 199.397 22.3584 198.903C23.1963 198.409 24.1667 198.162 25.2695 198.162C26.8379 198.162 28.1162 198.642 29.1045 199.602C30.0999 200.561 30.6549 201.865 30.7695 203.512L30.791 204.307C30.791 206.09 30.2933 207.522 29.2979 208.604C28.3024 209.678 26.9668 210.215 25.291 210.215C23.6152 210.215 22.276 209.678 21.2734 208.604C20.278 207.529 19.7803 206.068 19.7803 204.221V204.081ZM22.8848 204.307C22.8848 205.41 23.0924 206.255 23.5078 206.842C23.9232 207.422 24.5176 207.712 25.291 207.712C26.043 207.712 26.6302 207.425 27.0527 206.853C27.4753 206.272 27.6865 205.349 27.6865 204.081C27.6865 203 27.4753 202.162 27.0527 201.567C26.6302 200.973 26.0358 200.676 25.2695 200.676C24.5104 200.676 23.9232 200.973 23.5078 201.567C23.0924 202.155 22.8848 203.068 22.8848 204.307ZM41.2109 199.645C42.0345 198.656 43.0693 198.162 44.3154 198.162C46.8363 198.162 48.1146 199.627 48.1504 202.556V210H45.0459V202.642C45.0459 201.976 44.9027 201.485 44.6162 201.17C44.3298 200.848 43.8535 200.687 43.1875 200.687C42.278 200.687 41.6191 201.037 41.2109 201.739V210H38.1064V193.5H41.2109V199.645ZM57.2275 210C57.0843 209.721 56.9805 209.373 56.916 208.958C56.1641 209.796 55.1865 210.215 53.9834 210.215C52.8447 210.215 51.8994 209.885 51.1475 209.227C50.4027 208.568 50.0303 207.737 50.0303 206.734C50.0303 205.503 50.485 204.557 51.3945 203.898C52.3112 203.24 53.6325 202.907 55.3584 202.899H56.7871V202.233C56.7871 201.696 56.6475 201.267 56.3682 200.944C56.096 200.622 55.6628 200.461 55.0684 200.461C54.5456 200.461 54.1338 200.586 53.833 200.837C53.5394 201.088 53.3926 201.431 53.3926 201.868H50.2881C50.2881 201.195 50.4958 200.572 50.9111 199.999C51.3265 199.426 51.9137 198.979 52.6729 198.656C53.432 198.327 54.2842 198.162 55.2295 198.162C56.6618 198.162 57.7969 198.524 58.6348 199.247C59.4798 199.963 59.9023 200.973 59.9023 202.276V207.314C59.9095 208.417 60.0635 209.252 60.3643 209.817V210H57.2275ZM54.6602 207.841C55.1185 207.841 55.541 207.741 55.9277 207.54C56.3145 207.332 56.6009 207.057 56.7871 206.713V204.715H55.627C54.0729 204.715 53.2458 205.252 53.1455 206.326L53.1348 206.509C53.1348 206.896 53.2708 207.214 53.543 207.465C53.8151 207.715 54.1875 207.841 54.6602 207.841ZM66.4551 205.606L68.6035 198.377H71.9336L67.2607 211.805L67.0029 212.417C66.3083 213.935 65.1624 214.694 63.5654 214.694C63.1143 214.694 62.6559 214.626 62.1904 214.49V212.138L62.6631 212.148C63.2503 212.148 63.6872 212.059 63.9736 211.88C64.2673 211.701 64.4964 211.404 64.6611 210.988L65.0264 210.032L60.9551 198.377H64.2959L66.4551 205.606ZM81.5479 198.377L81.6445 199.677C82.4681 198.667 83.5817 198.162 84.9854 198.162C86.4821 198.162 87.5098 198.753 88.0684 199.935C88.8848 198.753 90.0485 198.162 91.5596 198.162C92.82 198.162 93.7581 198.531 94.374 199.269C94.9899 199.999 95.2979 201.102 95.2979 202.577V210H92.1826V202.588C92.1826 201.929 92.0537 201.449 91.7959 201.148C91.5381 200.84 91.0833 200.687 90.4316 200.687C89.5007 200.687 88.8561 201.131 88.498 202.019L88.5088 210H85.4043V202.599C85.4043 201.925 85.2718 201.438 85.0068 201.138C84.7419 200.837 84.2907 200.687 83.6533 200.687C82.7725 200.687 82.1351 201.052 81.7412 201.782V210H78.6367V198.377H81.5479ZM97.21 204.081C97.21 202.928 97.432 201.9 97.876 200.998C98.32 200.096 98.9574 199.397 99.7881 198.903C100.626 198.409 101.596 198.162 102.699 198.162C104.268 198.162 105.546 198.642 106.534 199.602C107.53 200.561 108.085 201.865 108.199 203.512L108.221 204.307C108.221 206.09 107.723 207.522 106.728 208.604C105.732 209.678 104.396 210.215 102.721 210.215C101.045 210.215 99.7057 209.678 98.7031 208.604C97.7077 207.529 97.21 206.068 97.21 204.221V204.081ZM100.314 204.307C100.314 205.41 100.522 206.255 100.938 206.842C101.353 207.422 101.947 207.712 102.721 207.712C103.473 207.712 104.06 207.425 104.482 206.853C104.905 206.272 105.116 205.349 105.116 204.081C105.116 203 104.905 202.162 104.482 201.567C104.06 200.973 103.465 200.676 102.699 200.676C101.94 200.676 101.353 200.973 100.938 201.567C100.522 202.155 100.314 203.068 100.314 204.307ZM114.312 206.208L116.471 198.377H119.715L115.794 210H112.829L108.908 198.377H112.152L114.312 206.208ZM124.366 210H121.251V198.377H124.366V210ZM121.068 195.369C121.068 194.904 121.222 194.521 121.53 194.22C121.845 193.919 122.271 193.769 122.809 193.769C123.339 193.769 123.761 193.919 124.076 194.22C124.391 194.521 124.549 194.904 124.549 195.369C124.549 195.842 124.388 196.229 124.065 196.529C123.75 196.83 123.331 196.98 122.809 196.98C122.286 196.98 121.863 196.83 121.541 196.529C121.226 196.229 121.068 195.842 121.068 195.369ZM129.845 198.377L129.941 199.677C130.765 198.667 131.879 198.162 133.282 198.162C134.779 198.162 135.807 198.753 136.365 199.935C137.182 198.753 138.345 198.162 139.856 198.162C141.117 198.162 142.055 198.531 142.671 199.269C143.287 199.999 143.595 201.102 143.595 202.577V210H140.479V202.588C140.479 201.929 140.351 201.449 140.093 201.148C139.835 200.84 139.38 200.687 138.729 200.687C137.798 200.687 137.153 201.131 136.795 202.019L136.806 210H133.701V202.599C133.701 201.925 133.569 201.438 133.304 201.138C133.039 200.837 132.588 200.687 131.95 200.687C131.069 200.687 130.432 201.052 130.038 201.782V210H126.934V198.377H129.845ZM149.267 210H146.151V198.377H149.267V210ZM145.969 195.369C145.969 194.904 146.123 194.521 146.431 194.22C146.746 193.919 147.172 193.769 147.709 193.769C148.239 193.769 148.661 193.919 148.977 194.22C149.292 194.521 149.449 194.904 149.449 195.369C149.449 195.842 149.288 196.229 148.966 196.529C148.651 196.83 148.232 196.98 147.709 196.98C147.186 196.98 146.764 196.83 146.441 196.529C146.126 196.229 145.969 195.842 145.969 195.369ZM157.184 210.215C155.479 210.215 154.09 209.692 153.016 208.646C151.949 207.601 151.415 206.208 151.415 204.468V204.167C151.415 203 151.641 201.958 152.092 201.041C152.543 200.117 153.18 199.408 154.004 198.914C154.835 198.413 155.78 198.162 156.84 198.162C158.43 198.162 159.679 198.663 160.589 199.666C161.506 200.669 161.964 202.09 161.964 203.931V205.198H154.562C154.663 205.957 154.964 206.566 155.465 207.024C155.973 207.483 156.614 207.712 157.388 207.712C158.584 207.712 159.518 207.279 160.191 206.412L161.717 208.12C161.251 208.779 160.621 209.295 159.826 209.667C159.031 210.032 158.15 210.215 157.184 210.215ZM156.829 200.676C156.213 200.676 155.712 200.883 155.325 201.299C154.946 201.714 154.702 202.309 154.595 203.082H158.913V202.835C158.899 202.147 158.713 201.618 158.354 201.245C157.996 200.866 157.488 200.676 156.829 200.676ZM166.594 198.377L166.69 199.72C167.521 198.681 168.635 198.162 170.031 198.162C171.263 198.162 172.18 198.524 172.781 199.247C173.383 199.97 173.691 201.052 173.705 202.491V210H170.601V202.566C170.601 201.908 170.457 201.431 170.171 201.138C169.884 200.837 169.408 200.687 168.742 200.687C167.868 200.687 167.213 201.059 166.776 201.804V210H163.672V198.377H166.594ZM179.785 195.52V198.377H181.772V200.654H179.785V206.455C179.785 206.885 179.868 207.193 180.032 207.379C180.197 207.565 180.512 207.658 180.978 207.658C181.321 207.658 181.626 207.633 181.891 207.583V209.936C181.282 210.122 180.655 210.215 180.011 210.215C177.834 210.215 176.724 209.116 176.681 206.917V200.654H174.983V198.377H176.681V195.52H179.785ZM182.696 204.081C182.696 202.928 182.918 201.9 183.362 200.998C183.806 200.096 184.444 199.397 185.274 198.903C186.112 198.409 187.083 198.162 188.186 198.162C189.754 198.162 191.032 198.642 192.021 199.602C193.016 200.561 193.571 201.865 193.686 203.512L193.707 204.307C193.707 206.09 193.209 207.522 192.214 208.604C191.218 209.678 189.883 210.215 188.207 210.215C186.531 210.215 185.192 209.678 184.189 208.604C183.194 207.529 182.696 206.068 182.696 204.221V204.081ZM185.801 204.307C185.801 205.41 186.008 206.255 186.424 206.842C186.839 207.422 187.434 207.712 188.207 207.712C188.959 207.712 189.546 207.425 189.969 206.853C190.391 206.272 190.603 205.349 190.603 204.081C190.603 203 190.391 202.162 189.969 201.567C189.546 200.973 188.952 200.676 188.186 200.676C187.426 200.676 186.839 200.973 186.424 201.567C186.008 202.155 185.801 203.068 185.801 204.307ZM201.914 206.788C201.914 206.409 201.724 206.111 201.345 205.896C200.972 205.674 200.371 205.478 199.54 205.306C196.776 204.726 195.394 203.551 195.394 201.782C195.394 200.751 195.82 199.892 196.672 199.204C197.531 198.509 198.652 198.162 200.034 198.162C201.509 198.162 202.688 198.509 203.568 199.204C204.456 199.899 204.9 200.801 204.9 201.911H201.796C201.796 201.467 201.653 201.102 201.366 200.815C201.08 200.522 200.632 200.375 200.023 200.375C199.501 200.375 199.096 200.493 198.81 200.729C198.523 200.966 198.38 201.267 198.38 201.632C198.38 201.976 198.541 202.255 198.863 202.47C199.193 202.677 199.744 202.86 200.518 203.018C201.291 203.168 201.943 203.34 202.473 203.533C204.113 204.135 204.933 205.177 204.933 206.659C204.933 207.719 204.478 208.578 203.568 209.237C202.659 209.889 201.484 210.215 200.045 210.215C199.071 210.215 198.204 210.043 197.445 209.699C196.693 209.348 196.103 208.872 195.673 208.271C195.243 207.662 195.028 207.007 195.028 206.305H197.972C198 206.856 198.204 207.279 198.584 207.572C198.964 207.866 199.472 208.013 200.109 208.013C200.704 208.013 201.151 207.902 201.452 207.68C201.76 207.451 201.914 207.153 201.914 206.788ZM217.77 210.215C216.065 210.215 214.676 209.692 213.602 208.646C212.535 207.601 212.001 206.208 212.001 204.468V204.167C212.001 203 212.227 201.958 212.678 201.041C213.129 200.117 213.766 199.408 214.59 198.914C215.421 198.413 216.366 198.162 217.426 198.162C219.016 198.162 220.265 198.663 221.175 199.666C222.091 200.669 222.55 202.09 222.55 203.931V205.198H215.148C215.249 205.957 215.549 206.566 216.051 207.024C216.559 207.483 217.2 207.712 217.974 207.712C219.17 207.712 220.104 207.279 220.777 206.412L222.303 208.12C221.837 208.779 221.207 209.295 220.412 209.667C219.617 210.032 218.736 210.215 217.77 210.215ZM217.415 200.676C216.799 200.676 216.298 200.883 215.911 201.299C215.532 201.714 215.288 202.309 215.181 203.082H219.499V202.835C219.485 202.147 219.299 201.618 218.94 201.245C218.582 200.866 218.074 200.676 217.415 200.676ZM227.18 198.377L227.276 199.72C228.107 198.681 229.221 198.162 230.617 198.162C231.849 198.162 232.766 198.524 233.367 199.247C233.969 199.97 234.277 201.052 234.291 202.491V210H231.187V202.566C231.187 201.908 231.043 201.431 230.757 201.138C230.47 200.837 229.994 200.687 229.328 200.687C228.454 200.687 227.799 201.059 227.362 201.804V210H224.258V198.377H227.18ZM80.9463 223.52V226.377H82.9336V228.654H80.9463V234.455C80.9463 234.885 81.0286 235.193 81.1934 235.379C81.3581 235.565 81.6732 235.658 82.1387 235.658C82.4824 235.658 82.7868 235.633 83.0518 235.583V237.936C82.443 238.122 81.8164 238.215 81.1719 238.215C78.9948 238.215 77.8848 237.116 77.8418 234.917V228.654H76.1445V226.377H77.8418V223.52H80.9463ZM91.624 236.818C90.8577 237.749 89.7979 238.215 88.4443 238.215C87.1982 238.215 86.2458 237.857 85.5869 237.141C84.9352 236.424 84.6022 235.375 84.5879 233.993V226.377H87.6924V233.886C87.6924 235.096 88.2438 235.701 89.3467 235.701C90.3994 235.701 91.1227 235.336 91.5166 234.605V226.377H94.6318V238H91.71L91.624 236.818ZM114.838 233.488L116.943 222.359H120.155L116.686 238H113.441L110.896 227.537L108.35 238H105.105L101.636 222.359H104.848L106.964 233.467L109.542 222.359H112.271L114.838 233.488ZM128.072 238C127.929 237.721 127.825 237.373 127.761 236.958C127.009 237.796 126.031 238.215 124.828 238.215C123.689 238.215 122.744 237.885 121.992 237.227C121.247 236.568 120.875 235.737 120.875 234.734C120.875 233.503 121.33 232.557 122.239 231.898C123.156 231.24 124.477 230.907 126.203 230.899H127.632V230.233C127.632 229.696 127.492 229.267 127.213 228.944C126.941 228.622 126.507 228.461 125.913 228.461C125.39 228.461 124.979 228.586 124.678 228.837C124.384 229.088 124.237 229.431 124.237 229.868H121.133C121.133 229.195 121.34 228.572 121.756 227.999C122.171 227.426 122.758 226.979 123.518 226.656C124.277 226.327 125.129 226.162 126.074 226.162C127.507 226.162 128.642 226.524 129.479 227.247C130.325 227.963 130.747 228.973 130.747 230.276V235.314C130.754 236.417 130.908 237.252 131.209 237.817V238H128.072ZM125.505 235.841C125.963 235.841 126.386 235.741 126.772 235.54C127.159 235.332 127.446 235.057 127.632 234.713V232.715H126.472C124.918 232.715 124.09 233.252 123.99 234.326L123.979 234.509C123.979 234.896 124.116 235.214 124.388 235.465C124.66 235.715 125.032 235.841 125.505 235.841ZM136.408 238H133.293V221.5H136.408V238ZM142.252 238H139.137V221.5H142.252V238ZM150.169 238.215C148.465 238.215 147.075 237.692 146.001 236.646C144.934 235.601 144.4 234.208 144.4 232.468V232.167C144.4 231 144.626 229.958 145.077 229.041C145.528 228.117 146.166 227.408 146.989 226.914C147.82 226.413 148.765 226.162 149.825 226.162C151.415 226.162 152.665 226.663 153.574 227.666C154.491 228.669 154.949 230.09 154.949 231.931V233.198H147.548C147.648 233.957 147.949 234.566 148.45 235.024C148.959 235.483 149.6 235.712 150.373 235.712C151.569 235.712 152.504 235.279 153.177 234.412L154.702 236.12C154.237 236.779 153.606 237.295 152.812 237.667C152.017 238.032 151.136 238.215 150.169 238.215ZM149.814 228.676C149.199 228.676 148.697 228.883 148.311 229.299C147.931 229.714 147.688 230.309 147.58 231.082H151.898V230.835C151.884 230.147 151.698 229.618 151.34 229.245C150.982 228.866 150.473 228.676 149.814 228.676ZM160.438 223.52V226.377H162.426V228.654H160.438V234.455C160.438 234.885 160.521 235.193 160.686 235.379C160.85 235.565 161.165 235.658 161.631 235.658C161.975 235.658 162.279 235.633 162.544 235.583V237.936C161.935 238.122 161.309 238.215 160.664 238.215C158.487 238.215 157.377 237.116 157.334 234.917V228.654H155.637V226.377H157.334V223.52H160.438Z" fill="#352F31"/>
<path d="M44.3 29.2299H195.79C201.46 29.2299 206.06 24.6299 206.06 18.9599C206.06 13.2899 201.46 8.68994 195.79 8.68994H44.3C38.63 8.68994 34.03 13.2899 34.03 18.9599C34.03 24.6299 38.63 29.2299 44.3 29.2299Z" fill="#352F31" fill-opacity="0.05"/>
<path d="M10.27 72.82H78.1C83.77 72.82 88.37 68.22 88.37 62.55C88.37 56.88 83.77 52.28 78.1 52.28H10.27C4.6 52.28 0 56.88 0 62.55C0 68.22 4.6 72.82 10.27 72.82Z" fill="#352F31" fill-opacity="0.05"/>
<path d="M140.41 72.8198H208.24C213.91 72.8198 218.51 68.2198 218.51 62.5498C218.51 56.8798 213.91 52.2798 208.24 52.2798H140.41C134.74 52.2798 130.14 56.8798 130.14 62.5498C130.14 68.2198 134.74 72.8198 140.41 72.8198Z" fill="#352F31" fill-opacity="0.05"/>
<path d="M64.3801 121.62H188.53C194.2 121.62 198.8 117.02 198.8 111.35C198.8 105.68 194.2 101.08 188.53 101.08H64.3801C58.7101 101.08 54.1101 105.68 54.1101 111.35C54.1201 117.03 58.7101 121.62 64.3801 121.62Z" fill="#352F31" fill-opacity="0.05"/>
<path d="M175.5 40V107.5H62V18H165V40H175.5Z" fill="#F8F8F8"/>
<g clip-path="url(#clip0_195:2705)">
<path d="M178.638 33.6667H173.167V28.2148V17.3165C173.167 14.3806 170.786 12 167.85 12H70.2148C61.2597 12 54 19.2597 54 28.2148V39.0305V66.1667V109.554C54 112.516 56.4009 114.917 59.3625 114.917H178.638C181.599 114.917 184 112.516 184 109.554V93.3191V55.2643V39.0292C184 36.0676 181.599 33.6667 178.638 33.6667ZM70.2148 22.8333H162.333V28.2148V33.5962H70.2148C67.2478 33.5962 64.8333 31.1818 64.8333 28.2148C64.8333 25.2478 67.2478 22.8333 70.2148 22.8333ZM173.167 82.4857H138.027C133.509 82.4857 129.833 78.8092 129.833 74.2917C129.833 69.7742 133.51 66.0976 138.027 66.0976H173.167V82.4857ZM138.027 55.2643C127.519 55.2643 119 63.7833 119 74.2917C119 84.8 127.519 93.3191 138.027 93.3191H173.167V104.083H64.8333V66.1667V44.5H173.167V55.2643H138.027Z" fill="#9C9698"/>
</g>
<defs>
<clipPath id="clip0_195:2705">
<rect width="130" height="102.917" fill="white" transform="translate(54 12)"/>
</clipPath>
</defs>
</svg>
