<svg width="202" height="134" viewBox="0 0 202 134" fill="none" xmlns="http://www.w3.org/2000/svg">
<g clip-path="url(#clip0_208_3788)">
<path d="M14.0918 116.057L188.006 115.596C190.177 115.589 191.938 113.827 191.93 111.638L191.693 21.2823C191.687 19.1116 189.925 17.3501 187.736 17.3582L13.8218 17.8196C11.6511 17.826 9.88961 19.5885 9.89774 21.7769L10.1346 112.133C10.1409 114.304 11.9034 116.065 14.0918 116.057Z" fill="url(#paint0_linear_208_3788)"/>
<path d="M102.307 87.6659C113.876 86.4939 122.304 76.1654 121.132 64.5965C119.96 53.0277 109.631 44.5994 98.0626 45.7714C86.4938 46.9434 78.0655 57.272 79.2375 68.8408C80.4095 80.4097 90.7381 88.838 102.307 87.6659Z" fill="#FC318B"/>
<path d="M105.961 69.8001L98.8972 69.8216L98.8694 60.587C98.8602 58.9149 97.5141 57.574 95.842 57.5832C94.1698 57.5925 92.829 58.9386 92.8382 60.6107L92.8681 72.8529C92.8773 74.5251 94.2235 75.8659 95.8956 75.8567L105.985 75.8313C107.657 75.8221 108.998 74.476 108.988 72.8039C108.981 71.1494 107.633 69.7909 105.961 69.8001Z" fill="white"/>
<path d="M22.4318 31.3098L179.193 30.8953L179.377 102.106L22.6157 102.52L22.4318 31.3098ZM16.9291 25.8336L17.1395 108.023L184.88 107.582L184.652 25.3943L16.9291 25.8336Z" fill="#FC318B"/>
<path d="M162.925 25.4423C162.949 37.4537 172.725 47.1601 184.736 47.1358L184.67 25.393L162.925 25.4423Z" fill="#FC318B"/>
<path d="M16.9784 47.5784C28.9898 47.5541 38.6963 37.7783 38.6719 25.7669L16.9291 25.8338L16.9784 47.5784Z" fill="#FC318B"/>
<path d="M38.8841 107.974C38.8598 95.9625 29.084 86.2561 17.0726 86.2805L17.1395 108.023L38.8841 107.974Z" fill="#FC318B"/>
<path d="M184.831 85.8376C172.819 85.862 163.113 95.6377 163.137 107.649L184.88 107.582L184.831 85.8376Z" fill="#FC318B"/>
<path d="M152.293 71.9406C155.261 71.64 157.423 68.9905 157.122 66.0229C156.822 63.0553 154.172 60.8933 151.205 61.1939C148.237 61.4946 146.075 64.144 146.376 67.1116C146.676 70.0793 149.326 72.2413 152.293 71.9406Z" fill="#FC318B"/>
<path d="M50.622 72.2204C53.5896 71.9198 55.7516 69.2703 55.4509 66.3027C55.1503 63.3351 52.5009 61.1731 49.5332 61.4737C46.5656 61.7743 44.4036 64.4238 44.7042 67.3914C45.0049 70.359 47.6543 72.521 50.622 72.2204Z" fill="#FC318B"/>
</g>
<defs>
<linearGradient id="paint0_linear_208_3788" x1="6.48397" y1="76.2738" x2="195.334" y2="57.1417" gradientUnits="userSpaceOnUse">
<stop stop-color="#EFACCD"/>
<stop offset="1" stop-color="#EFA6CD"/>
</linearGradient>
<clipPath id="clip0_208_3788">
<rect width="189.809" height="114.87" fill="white" transform="translate(0.694275 19.1313) rotate(-5.78482)"/>
</clipPath>
</defs>
</svg>
