<svg width="24" height="24" viewBox="0 0 24 24" fill="none" xmlns="http://www.w3.org/2000/svg">
<g clip-path="url(#clip0)">
<path d="M3.666 6.70126H16.581C16.95 6.70126 17.247 6.40426 17.247 6.03526V5.86876C17.2515 5.49976 16.95 5.20276 16.581 5.20276H3.666C3.297 5.20276 3 5.49976 3 5.86876V6.03526C3 6.40426 3.297 6.70126 3.666 6.70126Z" fill="#352F31"/>
<path d="M20.2485 11.2508H3.7515C3.3375 11.2508 3 11.5838 3 11.9978C3 12.4118 3.3375 12.7493 3.7515 12.7493H20.253C20.667 12.7493 21.0045 12.4118 21.0045 11.9978C21 11.5838 20.6625 11.2508 20.2485 11.2508Z" fill="#352F31"/>
<path d="M20.2485 17.2988H3.7515C3.3375 17.2988 3 17.6318 3 18.0458C3 18.4598 3.3375 18.7973 3.7515 18.7973H20.253C20.667 18.7973 21.0045 18.4598 21.0045 18.0458C21 17.6318 20.6625 17.2988 20.2485 17.2988Z" fill="#352F31"/>
</g>
<defs>
<clipPath id="clip0">
<rect width="18" height="13.5945" fill="white" transform="translate(3 5.20276)"/>
</clipPath>
</defs>
</svg>
