<svg width="24" height="24" viewBox="0 0 24 24" fill="none" xmlns="http://www.w3.org/2000/svg">
<g clip-path="url(#clip0_993_994)">
<path d="M18.7325 17.211V9.732C18.7325 6.015 15.7175 3 12.0005 3C8.28348 3 5.26848 6.015 5.26848 9.732V17.211C4.85448 17.211 4.52148 17.5485 4.52148 17.9625C4.52148 18.3765 4.85898 18.7095 5.26848 18.7095H8.53548C9.11148 20.055 10.4435 21 12.0005 21C13.5575 21 14.8895 20.055 15.4655 18.7095H18.7325C19.1465 18.7095 19.4795 18.372 19.4795 17.9625C19.4795 17.5485 19.1465 17.211 18.7325 17.211ZM13.607 18.84C13.1795 19.2675 12.608 19.506 12.005 19.506C11.402 19.506 10.8305 19.272 10.403 18.84C10.3625 18.7995 10.322 18.7545 10.2815 18.7095H13.7285C13.688 18.7545 13.6475 18.7995 13.607 18.84ZM17.2385 17.211H6.76698V9.732C6.76698 9.0255 6.90648 8.337 7.17648 7.6935C7.44198 7.068 7.81998 6.51 8.29698 6.0285C8.77398 5.547 9.33648 5.169 9.96198 4.908C10.6055 4.6335 11.294 4.4985 12.0005 4.4985C12.707 4.4985 13.3955 4.638 14.039 4.908C14.6645 5.1735 15.2225 5.5515 15.704 6.0285C16.1855 6.51 16.5635 7.068 16.8245 7.6935C17.099 8.337 17.234 9.0255 17.234 9.732V17.211H17.2385Z" fill="#352F31"/>
</g>
<circle cx="18.5" cy="7.5" r="4" fill="#FF6363" stroke="white"/>
<defs>
<clipPath id="clip0_993_994">
<rect width="14.958" height="18" fill="white" transform="translate(4.52148 3)"/>
</clipPath>
</defs>
</svg>
