<svg width="40" height="40" viewBox="0 0 40 40" fill="none" xmlns="http://www.w3.org/2000/svg">
<rect width="40" height="40" rx="20" fill="white"/>
<g clip-path="url(#clip0_4_20)">
<path d="M19.9998 21.4715C22.8933 21.4715 25.2378 19.127 25.2378 16.2335C25.2378 13.34 22.8933 11 19.9998 11C17.1063 11 14.7618 13.3445 14.7618 16.238C14.7618 19.1315 17.1063 21.4715 19.9998 21.4715ZM17.3583 13.592C18.0648 12.89 19.0008 12.4985 19.9998 12.4985C20.9988 12.4985 21.9348 12.8855 22.6413 13.592C23.3478 14.2985 23.7348 15.2345 23.7348 16.2335C23.7348 17.2325 23.3478 18.1685 22.6413 18.875C21.9348 19.5815 20.9988 19.9685 19.9998 19.9685C19.0008 19.9685 18.0648 19.5815 17.3583 18.875C16.6518 18.1685 16.2648 17.2325 16.2648 16.2335C16.2648 15.2345 16.6518 14.2985 17.3583 13.592Z" fill="url(#paint0_linear_4_20)"/>
<path d="M23.006 22.25H16.994C13.6865 22.25 11 24.9365 11 28.244C11 28.6625 11.3375 29 11.756 29H28.2485C28.667 29 29.0045 28.6625 29.0045 28.244C29 24.9365 26.3135 22.25 23.006 22.25ZM12.5615 27.5015C12.7145 26.5835 13.1465 25.7375 13.817 25.067C14.6675 24.2165 15.797 23.7485 16.994 23.7485H23.0015C24.203 23.7485 25.3325 24.2165 26.1785 25.067C26.849 25.7375 27.281 26.5835 27.434 27.5015H12.5615Z" fill="url(#paint1_linear_4_20)"/>
</g>
<defs>
<linearGradient id="paint0_linear_4_20" x1="19.9998" y1="11" x2="19.9998" y2="21.4715" gradientUnits="userSpaceOnUse">
<stop stop-color="#65DBDE"/>
<stop offset="1" stop-color="#52B9DB"/>
</linearGradient>
<linearGradient id="paint1_linear_4_20" x1="20.0022" y1="22.25" x2="20.0022" y2="29" gradientUnits="userSpaceOnUse">
<stop stop-color="#65DBDE"/>
<stop offset="1" stop-color="#52B9DB"/>
</linearGradient>
<clipPath id="clip0_4_20">
<rect width="18" height="18" fill="white" transform="translate(11 11)"/>
</clipPath>
</defs>
</svg>
