<svg width="41" height="40" viewBox="0 0 41 40" fill="none" xmlns="http://www.w3.org/2000/svg">
<rect x="0.333313" width="40" height="40" rx="20" fill="white"/>
<path d="M28.8522 14.2798L20.4517 11.0501C20.3632 11.0161 20.2722 11 20.1828 11C19.8815 11 19.5972 11.183 19.4827 11.4811L18.514 14H17.8094H12.0833C11.6692 14 11.3333 14.3358 11.3333 14.75V28.25C11.3333 28.6642 11.6692 29 12.0833 29H21.0833C21.4975 29 21.8333 28.6642 21.8333 28.25V27.9734V27.6517L23.4697 28.2808C23.5582 28.3147 23.6491 28.3308 23.7387 28.3308C24.04 28.3308 24.3243 28.1478 24.4388 27.8497L29.2831 15.2488C29.4318 14.8623 29.2388 14.4284 28.8522 14.2798ZM20.3333 27.0749V27.5H12.8333V15.5H17.8094H17.9375L14.6382 24.0819C14.4895 24.4685 14.6825 24.9024 15.0691 25.0511L20.3333 27.0749ZM23.3078 26.6114L16.3073 23.9203L20.6135 12.7194L27.614 15.4108L23.3078 26.6114Z" fill="url(#paint0_linear_4_83)"/>
<defs>
<linearGradient id="paint0_linear_4_83" x1="20.3333" y1="11" x2="20.3333" y2="29" gradientUnits="userSpaceOnUse">
<stop stop-color="#65DBDE"/>
<stop offset="1" stop-color="#52B9DB"/>
</linearGradient>
</defs>
</svg>
