<svg width="40" height="40" viewBox="0 0 40 40" fill="none" xmlns="http://www.w3.org/2000/svg">
<rect width="40" height="40" rx="20" fill="white"/>
<path d="M29.0998 13.3425H10.8897C10.8897 13.3425 10.8897 13.3425 10.8895 13.3425H10.8433C10.4325 13.3425 10.0916 13.6399 10.0231 14.0311C10.0081 14.0957 10 14.1629 10 14.2323V25.7575C10 25.8192 10.0062 25.8791 10.0181 25.9372C10.0731 26.3439 10.4214 26.6575 10.8433 26.6575H15.7716C15.7722 26.6539 15.7726 26.6506 15.7732 26.6471H24.2372C24.2378 26.6506 24.2382 26.6539 24.2388 26.6575H29.1671C29.6271 26.6575 30 26.2845 30 25.8246V20.8967C29.9965 20.8961 29.9931 20.8957 29.9896 20.8951V19.1049C29.9931 19.1043 29.9965 19.1039 30 19.1033V14.1754C30 13.7155 29.6271 13.3425 29.1671 13.3425H29.0998C29.1001 13.3425 29.1001 13.3425 29.0998 13.3425ZM15.7695 24.9815C15.4141 22.8903 13.7599 21.242 11.6658 20.8951V19.1052C13.7632 18.7576 15.4195 17.1043 15.7712 15.0083H24.239C24.5895 17.0974 26.2359 18.7468 28.3236 19.1016V20.8984C26.2395 21.2526 24.5949 22.8971 24.2407 24.9813H15.7695V24.9815ZM28.3238 17.3998C27.7566 17.2526 27.2366 16.9565 26.8112 16.5313C26.3833 16.1034 26.0862 15.5797 25.9398 15.0083H28.3238V17.3998ZM11.6762 17.4027V15.0083H14.0706C13.9242 15.5795 13.6271 16.1034 13.1992 16.5313C12.7713 16.9592 12.2474 17.2563 11.6762 17.4027ZM11.6762 24.9815V22.5975C12.2474 22.7439 12.7713 23.041 13.1992 23.4689C13.6244 23.8941 13.9205 24.4143 14.0677 24.9815H11.6762ZM25.9427 24.9815C26.09 24.4143 26.386 23.8943 26.8112 23.4689C27.2364 23.0435 27.7566 22.7476 28.3238 22.6004V24.9815H25.9427Z" fill="url(#paint0_linear_4_93)"/>
<path d="M19.1644 17.4874C18.7044 17.4874 18.3315 17.8604 18.3315 18.3203V21.6519C18.3315 22.1119 18.7044 22.4848 19.1644 22.4848H21.6631C22.123 22.4848 22.496 22.1119 22.496 21.6519C22.496 21.1919 22.123 20.819 21.6631 20.819H19.9973V18.3203C19.9973 17.8601 19.6244 17.4874 19.1644 17.4874Z" fill="url(#paint1_linear_4_93)"/>
<defs>
<linearGradient id="paint0_linear_4_93" x1="20" y1="13.3425" x2="20" y2="26.6575" gradientUnits="userSpaceOnUse">
<stop stop-color="#65DBDE"/>
<stop offset="1" stop-color="#52B9DB"/>
</linearGradient>
<linearGradient id="paint1_linear_4_93" x1="20.4137" y1="17.4874" x2="20.4137" y2="22.4848" gradientUnits="userSpaceOnUse">
<stop stop-color="#65DBDE"/>
<stop offset="1" stop-color="#52B9DB"/>
</linearGradient>
</defs>
</svg>
