<svg width="41" height="40" viewBox="0 0 41 40" fill="none" xmlns="http://www.w3.org/2000/svg">
<rect x="0.666656" width="40" height="40" rx="20" fill="white"/>
<path d="M20.6627 12C20.2948 12 19.9948 12.2999 19.9948 12.6678V19.3342H13.3325C12.9646 19.3302 12.6647 19.6301 12.6647 19.998C12.6647 20.3659 12.9646 20.6658 13.3325 20.6658H19.9988V27.3322C19.9988 27.7001 20.2988 28 20.6667 28C21.0346 28 21.3345 27.7001 21.3345 27.3322V20.6658H28.0008C28.3687 20.6658 28.6687 20.3659 28.6687 19.998C28.6687 19.6301 28.3687 19.3302 28.0008 19.3302H21.3305V12.6678C21.3305 12.2999 21.0306 12 20.6627 12Z" fill="url(#paint0_linear_4_73)"/>
<defs>
<linearGradient id="paint0_linear_4_73" x1="20.6667" y1="12" x2="20.6667" y2="28" gradientUnits="userSpaceOnUse">
<stop stop-color="#65DBDE"/>
<stop offset="1" stop-color="#52B9DB"/>
</linearGradient>
</defs>
</svg>
