<svg width="333" height="118" viewBox="0 0 333 118" fill="none" xmlns="http://www.w3.org/2000/svg">
<g filter="url(#filter0_d_5_297)">
<path d="M119.776 92.9967C111.215 93.1146 103.888 90.0951 97.4774 84.6872C94.0865 81.8269 93.4814 77.563 95.9917 74.4904C98.8733 70.952 102.809 70.604 106.709 73.5056C115.283 79.8807 124.347 80.211 132.063 73.9951C138.438 68.8525 140.618 61.9996 138.551 54.1442C136.533 46.4775 131.266 41.8952 123.454 40.1318C114.911 38.1975 105.116 43.399 100.653 51.8914C97.777 57.3583 95.6921 63.1378 93.3557 68.8171C88.5149 80.5766 80.2594 88.7918 67.5945 91.9587C59.3627 93.9891 50.6586 92.9422 43.1656 89.0205C35.6726 85.0988 29.9232 78.581 27.0297 70.7279C21.0746 54.215 28.5993 35.6144 44.6791 28.4254C57.7633 22.581 70.2125 24.2146 81.3977 33.3321C85.136 36.3752 85.7411 40.7216 83.1051 43.9475C80.4691 47.1734 75.8021 47.4093 72.0158 44.4311C59.6205 34.6767 43.415 41.4175 40.3356 54.7399C38.5383 62.4714 40.9347 69.0766 47.1234 74.0422C52.8687 78.6658 59.4587 79.5858 66.4802 76.991C74.7597 73.9007 78.6538 67.0832 81.7631 59.6053C83.3687 55.7424 84.8006 51.8029 86.502 47.9814C92.8584 33.6918 103.876 25.6359 119.818 25.229C135.993 24.8161 150.641 37.2421 153.463 53.0355C154.261 57.4417 154.169 61.9595 153.192 66.3306C152.215 70.7017 150.372 74.8404 147.77 78.5101C145.167 82.1798 141.855 85.3084 138.023 87.7172C134.191 90.1261 129.914 91.7677 125.437 92.5485C123.574 92.861 121.663 92.8551 119.776 92.9967Z" fill="url(#paint0_linear_5_297)"/>
</g>
<path d="M180.962 36.58V79.5H174.35V36.58H180.962ZM203.505 80.022C200.489 80.022 197.763 79.3453 195.327 77.992C192.891 76.6 190.977 74.6667 189.585 72.192C188.193 69.6787 187.497 66.7787 187.497 63.492C187.497 60.244 188.212 57.3633 189.643 54.85C191.074 52.3367 193.026 50.4033 195.501 49.05C197.976 47.6967 200.74 47.02 203.795 47.02C206.85 47.02 209.614 47.6967 212.089 49.05C214.564 50.4033 216.516 52.3367 217.947 54.85C219.378 57.3633 220.093 60.244 220.093 63.492C220.093 66.74 219.358 69.6207 217.889 72.134C216.42 74.6473 214.409 76.6 211.857 77.992C209.344 79.3453 206.56 80.022 203.505 80.022ZM203.505 74.28C205.206 74.28 206.792 73.874 208.261 73.062C209.769 72.25 210.987 71.032 211.915 69.408C212.843 67.784 213.307 65.812 213.307 63.492C213.307 61.172 212.862 59.2193 211.973 57.634C211.084 56.01 209.904 54.792 208.435 53.98C206.966 53.168 205.38 52.762 203.679 52.762C201.978 52.762 200.392 53.168 198.923 53.98C197.492 54.792 196.352 56.01 195.501 57.634C194.65 59.2193 194.225 61.172 194.225 63.492C194.225 66.9333 195.095 69.6013 196.835 71.496C198.614 73.352 200.837 74.28 203.505 74.28ZM240.491 80.022C237.475 80.022 234.749 79.3453 232.313 77.992C229.877 76.6 227.963 74.6667 226.571 72.192C225.179 69.6787 224.483 66.7787 224.483 63.492C224.483 60.244 225.199 57.3633 226.629 54.85C228.06 52.3367 230.013 50.4033 232.487 49.05C234.962 47.6967 237.727 47.02 240.781 47.02C243.836 47.02 246.601 47.6967 249.075 49.05C251.55 50.4033 253.503 52.3367 254.933 54.85C256.364 57.3633 257.079 60.244 257.079 63.492C257.079 66.74 256.345 69.6207 254.875 72.134C253.406 74.6473 251.395 76.6 248.843 77.992C246.33 79.3453 243.546 80.022 240.491 80.022ZM240.491 74.28C242.193 74.28 243.778 73.874 245.247 73.062C246.755 72.25 247.973 71.032 248.901 69.408C249.829 67.784 250.293 65.812 250.293 63.492C250.293 61.172 249.849 59.2193 248.959 57.634C248.07 56.01 246.891 54.792 245.421 53.98C243.952 53.168 242.367 52.762 240.665 52.762C238.964 52.762 237.379 53.168 235.909 53.98C234.479 54.792 233.338 56.01 232.487 57.634C231.637 59.2193 231.211 61.172 231.211 63.492C231.211 66.9333 232.081 69.6013 233.821 71.496C235.6 73.352 237.823 74.28 240.491 74.28ZM270.228 36.58V79.5H263.616V36.58H270.228ZM308.199 62.738C308.199 63.9367 308.121 65.0193 307.967 65.986H283.549C283.742 68.538 284.689 70.5873 286.391 72.134C288.092 73.6807 290.18 74.454 292.655 74.454C296.212 74.454 298.725 72.9653 300.195 69.988H307.329C306.362 72.9267 304.603 75.3433 302.051 77.238C299.537 79.094 296.405 80.022 292.655 80.022C289.6 80.022 286.855 79.3453 284.419 77.992C282.021 76.6 280.127 74.6667 278.735 72.192C277.381 69.6787 276.705 66.7787 276.705 63.492C276.705 60.2053 277.362 57.3247 278.677 54.85C280.03 52.3367 281.905 50.4033 284.303 49.05C286.739 47.6967 289.523 47.02 292.655 47.02C295.671 47.02 298.358 47.6773 300.717 48.992C303.075 50.3067 304.912 52.1627 306.227 54.56C307.541 56.9187 308.199 59.6447 308.199 62.738ZM301.297 60.65C301.258 58.214 300.388 56.2613 298.687 54.792C296.985 53.3227 294.878 52.588 292.365 52.588C290.083 52.588 288.131 53.3227 286.507 54.792C284.883 56.2227 283.916 58.1753 283.607 60.65H301.297Z" fill="white"/>
<defs>
<filter id="filter0_d_5_297" x="0" y="0" width="179" height="118" filterUnits="userSpaceOnUse" color-interpolation-filters="sRGB">
<feFlood flood-opacity="0" result="BackgroundImageFix"/>
<feColorMatrix in="SourceAlpha" type="matrix" values="0 0 0 0 0 0 0 0 0 0 0 0 0 0 0 0 0 0 127 0" result="hardAlpha"/>
<feOffset/>
<feGaussianBlur stdDeviation="12.5"/>
<feComposite in2="hardAlpha" operator="out"/>
<feColorMatrix type="matrix" values="0 0 0 0 0.92549 0 0 0 0 0.32549 0 0 0 0 0.596078 0 0 0 0.5 0"/>
<feBlend mode="normal" in2="BackgroundImageFix" result="effect1_dropShadow_5_297"/>
<feBlend mode="normal" in="SourceGraphic" in2="effect1_dropShadow_5_297" result="shape"/>
</filter>
<linearGradient id="paint0_linear_5_297" x1="25" y1="59" x2="154" y2="59" gradientUnits="userSpaceOnUse">
<stop stop-color="#EC5398"/>
<stop offset="1" stop-color="#BD4BDA"/>
</linearGradient>
</defs>
</svg>
